<?xml version="1.0" encoding="utf-8"?>
<!-- Generator: Adobe Illustrator 16.0.0, SVG Export Plug-In . SVG Version: 6.00 Build 0)  -->
<!DOCTYPE svg PUBLIC "-//W3C//DTD SVG 1.1//EN" "http://www.w3.org/Graphics/SVG/1.1/DTD/svg11.dtd">
<svg version="1.1" id="Layer_1" xmlns="http://www.w3.org/2000/svg" xmlns:xlink="http://www.w3.org/1999/xlink" x="0px" y="0px"
	 width="18px" height="18px" viewBox="3.558 3.443 18 18" enable-background="new 3.558 3.443 18 18" xml:space="preserve">
<g>
	<path fill="#C43C27" d="M9.055,4.154c1.106-0.475,2.274-0.711,3.501-0.711c1.229,0,2.396,0.236,3.502,0.711
		c1.107,0.474,2.062,1.11,2.871,1.919c0.807,0.805,1.445,1.761,1.918,2.87c0.473,1.106,0.711,2.274,0.711,3.5
		c0,1.229-0.238,2.393-0.711,3.502c-0.473,1.105-1.111,2.062-1.918,2.871c-0.809,0.805-1.764,1.443-2.871,1.918
		c-1.106,0.473-2.273,0.709-3.502,0.709c-1.228,0-2.396-0.236-3.501-0.709c-1.107-0.475-2.064-1.113-2.87-1.918
		c-0.807-0.811-1.445-1.766-1.918-2.871c-0.475-1.109-0.709-2.273-0.709-3.502c0-1.227,0.234-2.394,0.709-3.5
		c0.473-1.109,1.111-2.065,1.918-2.87C6.99,5.264,7.947,4.627,9.055,4.154z M13.898,13.239l0.903-4.712
		c0.041-0.206,0-0.387-0.127-0.536c-0.124-0.151-0.295-0.228-0.514-0.228h-3.229c-0.205,0-0.373,0.076-0.496,0.228
		c-0.127,0.149-0.168,0.33-0.127,0.536l0.904,4.712c0.042,0.204,0.153,0.387,0.335,0.538c0.183,0.147,0.377,0.226,0.586,0.226h0.843
		c0.207,0,0.403-0.076,0.584-0.226C13.745,13.626,13.855,13.443,13.898,13.239z M14.117,15.562h-3.12v2.605h3.12V15.562z"/>
</g>
</svg>
