<?xml version="1.0" encoding="utf-8"?>
<!-- Generator: Adobe Illustrator 16.0.0, SVG Export Plug-In . SVG Version: 6.00 Build 0)  -->
<!DOCTYPE svg PUBLIC "-//W3C//DTD SVG 1.1//EN" "http://www.w3.org/Graphics/SVG/1.1/DTD/svg11.dtd">
<svg version="1.1" id="Layer_1" xmlns="http://www.w3.org/2000/svg" xmlns:xlink="http://www.w3.org/1999/xlink" x="0px" y="0px"
	 width="28.799px" height="28.801px" viewBox="0 0 28.799 28.801" enable-background="new 0 0 28.799 28.801" xml:space="preserve">
<g>
	<path fill="#C43C27" d="M8.795,1.139C10.565,0.379,12.435,0,14.396,0C16.362,0,18.229,0.379,20,1.139
		c1.773,0.758,3.303,1.775,4.594,3.07c1.291,1.287,2.314,2.816,3.07,4.592c0.756,1.77,1.135,3.637,1.135,5.598
		c0,1.968-0.379,3.83-1.135,5.604s-1.779,3.302-3.07,4.594c-1.291,1.289-2.82,2.312-4.594,3.068
		c-1.771,0.758-3.639,1.137-5.604,1.137c-1.962,0-3.831-0.379-5.602-1.137c-1.771-0.756-3.303-1.779-4.592-3.068
		c-1.291-1.292-2.312-2.82-3.069-4.594C0.375,18.229,0,16.366,0,14.398c0-1.961,0.375-3.828,1.134-5.598
		c0.757-1.775,1.778-3.305,3.069-4.592C5.492,2.914,7.023,1.896,8.795,1.139z"/>
	<path fill="#FFFFFF" d="M16.545,15.674l1.447-7.539c0.066-0.33,0-0.619-0.203-0.857c-0.197-0.242-0.471-0.364-0.82-0.364h-5.167
		c-0.329,0-0.598,0.122-0.796,0.364c-0.202,0.238-0.269,0.527-0.202,0.857l1.448,7.539c0.066,0.33,0.245,0.621,0.535,0.863
		c0.291,0.236,0.604,0.361,0.938,0.361h1.346c0.334,0,0.648-0.125,0.938-0.361C16.299,16.295,16.477,16.004,16.545,15.674z"/>
	<rect x="11.903" y="19.391" fill="#FFFFFF" width="4.992" height="4.172"/>
</g>
</svg>
