<?xml version="1.0" encoding="utf-8"?>
<!-- Generator: Adobe Illustrator 16.0.0, SVG Export Plug-In . SVG Version: 6.00 Build 0)  -->
<!DOCTYPE svg PUBLIC "-//W3C//DTD SVG 1.1//EN" "http://www.w3.org/Graphics/SVG/1.1/DTD/svg11.dtd">
<svg version="1.1" id="Layer_1" xmlns="http://www.w3.org/2000/svg" xmlns:xlink="http://www.w3.org/1999/xlink" x="0px" y="0px"
	 width="28.06px" height="22.557px" viewBox="0 0 28.06 22.557" enable-background="new 0 0 28.06 22.557" xml:space="preserve">
<path id="icon-bookAmount" d="M17.198,21.655l0.056,0.902h-6.393v-0.902H0V3.609h0.908v17.143h10.861v0.902h4.522v-0.902h10.86V3.609
	h0.908v18.045H17.198z M26.249,19.736V2.029c0,0-2.432-2.029-5.881-2.029s-5.887,1.805-5.887,1.805v17.931
	c0,0,2.438-1.745,5.887-1.745S26.249,19.736,26.249,19.736z M13.579,19.736V2.029c0,0-2.437-2.029-5.887-2.029
	C4.243,0,1.811,1.805,1.811,1.805v17.931c0,0,2.432-1.745,5.881-1.745C11.142,17.991,13.579,19.736,13.579,19.736z"/>
</svg>
