<?xml version="1.0" encoding="utf-8"?>
<!-- Generator: Adobe Illustrator 16.0.0, SVG Export Plug-In . SVG Version: 6.00 Build 0)  -->
<!DOCTYPE svg PUBLIC "-//W3C//DTD SVG 1.1//EN" "http://www.w3.org/Graphics/SVG/1.1/DTD/svg11.dtd">
<svg version="1.1" id="Layer_1" xmlns="http://www.w3.org/2000/svg" xmlns:xlink="http://www.w3.org/1999/xlink" x="0px" y="0px"
	 width="26.52px" height="21.318px" viewBox="0 0 26.52 21.318" enable-background="new 0 0 26.52 21.318" xml:space="preserve">
<path id="icon-bosPhoto" d="M24.694,3.551h-5.434c0,0-0.058-0.104-0.058-1.33C19.203,0.992,18.185,0,16.915,0H9.604
	C8.341,0,7.316,0.992,7.316,2.221c0,1.227,0.058,1.33,0.058,1.33H1.83C0.816,3.551,0,4.348,0,5.33v14.211
	c0,0.984,0.816,1.777,1.83,1.777h22.864c1.009,0,1.825-0.793,1.825-1.777V5.33C26.52,4.348,25.703,3.551,24.694,3.551z
	 M13.301,17.742c-3.031,0-5.485-2.387-5.485-5.33s2.454-5.33,5.485-5.33c3.032,0,5.487,2.387,5.487,5.33
	S16.333,17.742,13.301,17.742z"/>
</svg>
