<?xml version="1.0" encoding="utf-8"?>
<!-- Generator: Adobe Illustrator 16.0.0, SVG Export Plug-In . SVG Version: 6.00 Build 0)  -->
<!DOCTYPE svg PUBLIC "-//W3C//DTD SVG 1.1//EN" "http://www.w3.org/Graphics/SVG/1.1/DTD/svg11.dtd">
<svg version="1.1" id="Layer_1" xmlns="http://www.w3.org/2000/svg" xmlns:xlink="http://www.w3.org/1999/xlink" x="0px" y="0px"
	 width="18.156px" height="20.355px" viewBox="0 0 18.156 20.355" enable-background="new 0 0 18.156 20.355" xml:space="preserve">
<path id="icon-businessSummary" d="M0,15.245h1.298v1.271H0V15.245z M1.298,19.058H0v1.271h1.298V19.058z M0,12.709h1.298v-1.271H0V12.709z
	 M0,8.896h1.298V7.625H0V8.896z M0,5.084h1.298V3.812H0V5.084z M0,1.271h1.298V0H0V1.271z M3.889,16.543h14.267v-1.266H3.889V16.543
	z M18.156,19.086H3.889v1.27h14.267V19.086z M3.889,12.73h14.267V11.46H3.889V12.73z M3.889,8.918h14.267V7.652H3.889V8.918z
	 M3.889,5.11h14.267V3.84H3.889V5.11z M3.889,1.298h14.267V0.027H3.889V1.298z"/>
</svg>
