<?xml version="1.0" encoding="utf-8"?>
<!-- Generator: Adobe Illustrator 16.0.0, SVG Export Plug-In . SVG Version: 6.00 Build 0)  -->
<!DOCTYPE svg PUBLIC "-//W3C//DTD SVG 1.1//EN" "http://www.w3.org/Graphics/SVG/1.1/DTD/svg11.dtd">
<svg version="1.1" id="Layer_1" xmlns="http://www.w3.org/2000/svg" xmlns:xlink="http://www.w3.org/1999/xlink" x="0px" y="0px"
	 width="15px" height="16px" viewBox="0 0 15 16" enable-background="new 0 0 15 16" xml:space="preserve">
<g>
	<rect x="5" y="6" fill="#989898" width="2" height="2"/>
	<rect x="8" y="6" fill="#989898" width="2" height="2"/>
	<rect x="11" y="6" fill="#989898" width="2" height="2"/>
	<rect x="2" y="9" fill="#989898" width="2" height="2"/>
	<rect x="5" y="9" fill="#989898" width="2" height="2"/>
	<rect x="8" y="9" fill="#989898" width="2" height="2"/>
	<rect x="11" y="9" fill="#989898" width="2" height="2"/>
	<rect x="2" y="12" fill="#989898" width="2" height="2"/>
	<rect x="5" y="12" fill="#989898" width="2" height="2"/>
	<rect x="8" y="12" fill="#989898" width="2" height="2"/>
	<path fill="#989898" d="M13,2V0h-3v2H5V0H2v2H0v14h15V2H13z M11,1h1v2h-1V1z M3,1h1v2H3V1z M14,15H1V5h13V15z"/>
</g>
</svg>
