<?xml version="1.0" encoding="utf-8"?>
<!-- Generator: Adobe Illustrator 16.0.0, SVG Export Plug-In . SVG Version: 6.00 Build 0)  -->
<!DOCTYPE svg PUBLIC "-//W3C//DTD SVG 1.1//EN" "http://www.w3.org/Graphics/SVG/1.1/DTD/svg11.dtd">
<svg version="1.1" id="Layer_1" xmlns="http://www.w3.org/2000/svg" xmlns:xlink="http://www.w3.org/1999/xlink" x="0px" y="0px"
	 width="17.875px" height="15.74px" viewBox="3.585 4.578 17.875 15.74" enable-background="new 3.585 4.578 17.875 15.74"
	 xml:space="preserve">
<g>
	<path fill="#0268AD" d="M17.867,9.669l-0.223-3.352c-0.041-0.485-0.447-0.477-0.943-0.477H8.349c-0.496,0-0.902-0.009-0.942,0.477
		L7.185,9.669H17.867z M20.232,13.104c0-0.686-0.556-1.244-1.24-1.244c-0.688,0-1.244,0.559-1.244,1.244
		c0,0.689,0.557,1.246,1.244,1.246C19.676,14.35,20.232,13.793,20.232,13.104z M16.135,14.814v-2.236
		c0-0.309-0.252-0.561-0.562-0.561l-5.915,0.01c-0.31,0-0.561,0.252-0.561,0.561l-0.001,2.236L16.135,14.814z M6.056,14.35
		c0.687,0,1.244-0.557,1.244-1.246c0-0.686-0.558-1.244-1.244-1.244s-1.242,0.559-1.242,1.244C4.814,13.793,5.37,14.35,6.056,14.35z
		 M17.127,4.578c0.953,0,1.736,0.734,1.814,1.672l0.229,3.456l2.289,1.386l-0.004,5.832h-1.021v1.91c0,0.82-0.662,1.484-1.482,1.484
		c-0.818,0-1.482-0.664-1.482-1.484l0.002-1.91H7.576l0.002,1.91c0,0.82-0.664,1.484-1.484,1.484c-0.82,0-1.482-0.664-1.482-1.484
		v-1.91H3.588l-0.003-5.832l2.291-1.386l0.23-3.456C6.184,5.313,6.965,4.578,7.92,4.578H17.127z"/>
</g>
</svg>
