<?xml version="1.0" encoding="utf-8"?>
<!-- Generator: Adobe Illustrator 16.0.0, SVG Export Plug-In . SVG Version: 6.00 Build 0)  -->
<!DOCTYPE svg PUBLIC "-//W3C//DTD SVG 1.1//EN" "http://www.w3.org/Graphics/SVG/1.1/DTD/svg11.dtd">
<svg version="1.1" id="Layer_1" xmlns="http://www.w3.org/2000/svg" xmlns:xlink="http://www.w3.org/1999/xlink" x="0px" y="0px"
   width="19.064px" height="15.593px" viewBox="2.94 4.666 19.064 15.593" enable-background="new 2.94 4.666 19.064 15.593"
   xml:space="preserve">
<g>
  <path fill="#0268AD" d="M21.096,10.659h-1.91l-3.498-4.293c0.047-0.129,0.07-0.289,0.07-0.434c0-0.69-0.559-1.26-1.248-1.26
    c-0.688,0-1.248,0.553-1.248,1.243c0,0.689,0.562,1.244,1.248,1.244c0.072,0,0.141,0.041,0.207,0.031l2.82,3.469H8.131l2.82-3.473
    c0.066,0.012,0.137-0.006,0.207-0.006c0.688,0,1.246-0.57,1.246-1.26s-0.559-1.254-1.246-1.254c-0.689,0-1.25,0.556-1.25,1.245
    c0,0.143,0.025,0.326,0.07,0.457l-3.496,4.291H3.848c-0.5,0-0.908,0.195-0.908,0.6c0,0.406,0.408,0.602,0.908,0.602h17.248
    c0.5,0,0.908-0.195,0.908-0.602C22.004,10.854,21.596,10.659,21.096,10.659z"/>
  <path fill="#0268AD" d="M20.039,13.061H4.902c-0.498,0-0.85,0.383-0.779,0.877l0.828,5.608c0.07,0.494,0.537,0.713,1.037,0.713
    h12.969c0.5,0,0.965-0.229,1.035-0.723l0.826-5.687C20.891,13.355,20.539,13.061,20.039,13.061z M7.604,18.46
    c0,0.328-0.27,0.601-0.6,0.601s-0.6-0.271-0.6-0.601v-3.601c0-0.33,0.27-0.602,0.6-0.602s0.6,0.271,0.6,0.602V18.46z M11.205,18.46
    c0,0.328-0.271,0.601-0.602,0.601c-0.328,0-0.6-0.271-0.6-0.601v-3.601c0-0.33,0.271-0.602,0.6-0.602
    c0.33,0,0.602,0.271,0.602,0.602V18.46z M14.805,18.46c0,0.328-0.27,0.601-0.6,0.601s-0.602-0.271-0.602-0.601v-3.601
    c0-0.33,0.271-0.602,0.602-0.602s0.6,0.271,0.6,0.602V18.46z M18.404,18.46c0,0.328-0.271,0.601-0.6,0.601
    c-0.33,0-0.601-0.271-0.601-0.601v-3.601c0-0.33,0.271-0.602,0.601-0.602c0.329,0,0.6,0.271,0.6,0.602V18.46z"/>
</g>
</svg>
