<?xml version="1.0" encoding="utf-8"?>
<!-- Generator: Adobe Illustrator 16.0.0, SVG Export Plug-In . SVG Version: 6.00 Build 0)  -->
<!DOCTYPE svg PUBLIC "-//W3C//DTD SVG 1.1//EN" "http://www.w3.org/Graphics/SVG/1.1/DTD/svg11.dtd">
<svg version="1.1" id="Layer_1" xmlns="http://www.w3.org/2000/svg" xmlns:xlink="http://www.w3.org/1999/xlink" x="0px" y="0px"
	 width="21.842px" height="26.699px" viewBox="0 0 21.842 26.699" enable-background="new 0 0 21.842 26.699" xml:space="preserve">
<g>
	<path fill="#3499CD" d="M21.842,26.699V6.473c0-0.28-0.127-0.548-0.35-0.746l-6.08-5.417C15.191,0.111,14.889,0,14.579,0H1.185
		C0.875,0,0.57,0.111,0.347,0.31C0.127,0.504,0,0.778,0,1.057v24.589c0,0.277,0.127,0.548,0.347,0.744
		c0.223,0.196,0.528,0.31,0.838,0.31h18.288v-2.11H2.366V2.111h11.715v4.647c0,0.062,0.025,0.121,0.077,0.167
		c0.047,0.044,0.119,0.067,0.188,0.067h5.127v19.706H21.842z"/>
	<g>
		<line fill="#3499CD" x1="5.347" y1="10.347" x2="13.614" y2="10.347"/>
		<rect x="5.347" y="9.508" fill="#3499CD" width="8.267" height="1.676"/>
	</g>
	<g>
		<line fill="#3499CD" x1="5.347" y1="14.954" x2="13.614" y2="14.954"/>
		<rect x="5.347" y="14.114" fill="#3499CD" width="8.267" height="1.676"/>
	</g>
	<g>
		<line fill="#3499CD" x1="5.347" y1="19.558" x2="13.614" y2="19.558"/>
		<rect x="5.347" y="18.721" fill="#3499CD" width="8.267" height="1.675"/>
	</g>
</g>
</svg>
