<?xml version="1.0" encoding="utf-8"?>
<!-- Generator: Adobe Illustrator 16.0.0, SVG Export Plug-In . SVG Version: 6.00 Build 0)  -->
<!DOCTYPE svg PUBLIC "-//W3C//DTD SVG 1.1//EN" "http://www.w3.org/Graphics/SVG/1.1/DTD/svg11.dtd">
<svg version="1.1" id="Layer_1" xmlns="http://www.w3.org/2000/svg" xmlns:xlink="http://www.w3.org/1999/xlink" x="0px" y="0px"
	 width="20.976px" height="11.985px" viewBox="2.029 6.47 20.976 11.985" enable-background="new 2.029 6.47 20.976 11.985"
	 xml:space="preserve">
<path id="view_1_" fill="#0268AD" d="M12.517,6.47c-5.861,0-10.488,5.992-10.488,5.992s4.626,5.993,10.488,5.993
	c4.483,0,10.488-5.993,10.488-5.993S17,6.47,12.517,6.47z M12.517,16.195c-2.058,0-3.734-1.674-3.734-3.734
	c0-2.058,1.677-3.735,3.734-3.735s3.734,1.676,3.734,3.735C16.251,14.521,14.574,16.195,12.517,16.195z M12.517,10.282
	c-1.203,0-2.181,0.976-2.181,2.18s0.977,2.181,2.181,2.181c1.204,0,2.181-0.977,2.181-2.182
	C14.697,11.259,13.721,10.282,12.517,10.282z"/>
</svg>
