<?xml version="1.0" encoding="utf-8"?>
<!-- Generator: Adobe Illustrator 16.0.0, SVG Export Plug-In . SVG Version: 6.00 Build 0)  -->
<!DOCTYPE svg PUBLIC "-//W3C//DTD SVG 1.1//EN" "http://www.w3.org/Graphics/SVG/1.1/DTD/svg11.dtd">
<svg version="1.1" id="Layer_1" xmlns="http://www.w3.org/2000/svg" xmlns:xlink="http://www.w3.org/1999/xlink" x="0px" y="0px"
	 width="28.803px" height="28.801px" viewBox="0 0 28.803 28.801" enable-background="new 0 0 28.803 28.801" xml:space="preserve">
<path fill="#C43C27" d="M26.872,7.176c-1.287-2.211-3.037-3.96-5.246-5.246C19.413,0.643,17.006,0,14.403,0
	c-2.606,0-5.014,0.643-7.224,1.93C4.966,3.216,3.22,4.965,1.933,7.176C0.644,9.388,0,11.794,0,14.398
	c0,2.605,0.644,5.014,1.933,7.225c1.287,2.213,3.033,3.961,5.246,5.248c2.21,1.285,4.618,1.93,7.224,1.93
	c2.604,0,5.01-0.645,7.223-1.93c2.209-1.287,3.959-3.035,5.246-5.248c1.287-2.211,1.932-4.619,1.932-7.225
	C28.803,11.794,28.159,9.388,26.872,7.176z"/>
<path fill="#FFFFFF" d="M21.645,20c0,1.236-1.102,1.627-1.613,1.627c-0.881,0-0.924-0.162-5.625-4.899
	c-4.663,4.704-4.733,4.888-5.631,4.888c-1.236,0-1.629-1.101-1.629-1.613c0-0.881,0.163-0.924,4.909-5.633
	c-4.414-4.4-4.897-4.695-4.897-5.598c0-1.189,1.017-1.655,1.648-1.655c0.906,0,1.054,0.356,5.598,4.907
	C18.807,7.609,19.1,7.127,20,7.127c1.191,0,1.656,1.018,1.656,1.648c0,0.907-0.357,1.055-4.898,5.591
	C21.461,19.031,21.645,19.1,21.645,20z"/>
</svg>
