<?xml version="1.0" encoding="utf-8"?>
<!-- Generator: Adobe Illustrator 16.0.0, SVG Export Plug-In . SVG Version: 6.00 Build 0)  -->
<!DOCTYPE svg PUBLIC "-//W3C//DTD SVG 1.1//EN" "http://www.w3.org/Graphics/SVG/1.1/DTD/svg11.dtd">
<svg version="1.1" id="Layer_1" xmlns="http://www.w3.org/2000/svg" xmlns:xlink="http://www.w3.org/1999/xlink" x="0px" y="0px"
	 width="18.002px" height="18px" viewBox="3.507 3.481 18.002 18" enable-background="new 3.507 3.481 18.002 18"
	 xml:space="preserve">
<path fill="#C43C27" d="M7.993,4.687c1.381-0.805,2.887-1.206,4.516-1.206c1.627,0,3.132,0.401,4.515,1.206
	c1.381,0.804,2.475,1.896,3.278,3.278c0.806,1.383,1.207,2.887,1.207,4.515c0,1.627-0.401,3.133-1.207,4.516
	c-0.805,1.383-1.897,2.475-3.278,3.279c-1.383,0.803-2.888,1.205-4.515,1.205c-1.629,0-3.135-0.402-4.516-1.205
	c-1.383-0.805-2.475-1.896-3.279-3.279c-0.804-1.383-1.207-2.889-1.207-4.516c0-1.628,0.402-3.132,1.207-4.515
	C5.519,6.583,6.61,5.491,7.993,4.687z M7.187,10.355l2.125,2.125l-2.141,2.125l3.211,3.213l2.127-2.144l2.125,2.144l3.212-3.213
	l-2.142-2.125l2.142-2.125l-3.212-3.197l-2.125,2.128l-2.127-2.142L7.187,10.355z"/>
</svg>
