<?xml version="1.0" encoding="utf-8"?>
<!-- Generator: Adobe Illustrator 16.0.0, SVG Export Plug-In . SVG Version: 6.00 Build 0)  -->
<!DOCTYPE svg PUBLIC "-//W3C//DTD SVG 1.1//EN" "http://www.w3.org/Graphics/SVG/1.1/DTD/svg11.dtd">
<svg version="1.1" id="Layer_1" xmlns="http://www.w3.org/2000/svg" xmlns:xlink="http://www.w3.org/1999/xlink" x="0px" y="0px"
	 width="13.483px" height="16px" viewBox="5.327 4 13.483 16" enable-background="new 5.327 4 13.483 16" xml:space="preserve">
<g>
	<path fill="#0268AD" d="M14.152,13.534c-1.146,1.674-3.021,1.674-4.168,0C8.837,11.86,6.961,8.919,5.816,7.245
		C4.67,5.571,5.607,4,7.9,4c2.292,0,6.043,0,8.336,0s3.229,1.571,2.084,3.245C17.174,8.919,15.298,11.86,14.152,13.534z"/>
	<g>
		<path fill="#0268AD" d="M14,11c0-0.552-0.447-1-1-1h-2c-0.552,0-1,0.448-1,1v8c0,0.553,0.448,1,1,1h2c0.553,0,1-0.447,1-1V11z"/>
	</g>
</g>
</svg>
