<?xml version="1.0" encoding="utf-8"?>
<!-- Generator: Adobe Illustrator 16.0.0, SVG Export Plug-In . SVG Version: 6.00 Build 0)  -->
<!DOCTYPE svg PUBLIC "-//W3C//DTD SVG 1.1//EN" "http://www.w3.org/Graphics/SVG/1.1/DTD/svg11.dtd">
<svg version="1.1" id="Layer_1" xmlns="http://www.w3.org/2000/svg" xmlns:xlink="http://www.w3.org/1999/xlink" x="0px" y="0px"
   width="28.6px" height="29.119px" viewBox="0 0 28.6 29.119" enable-background="new 0 0 28.6 29.119" xml:space="preserve">
<path id="icon-floorplan" d="M28.272,26.412l-8.133-8.071c1.586-1.935,2.543-4.399,2.543-7.082C22.683,5.039,17.607,0,11.341,0
  C5.075,0,0,5.038,0,11.257c0,6.215,5.075,11.254,11.342,11.254c2.324,0,4.482-0.702,6.286-1.898l8.242,8.18
  c0.437,0.437,1.159,0.437,1.596,0l0.807-0.795C28.709,27.56,28.709,26.847,28.272,26.412z M17.498,17.008
  c-0.058,0.042-0.114,0.084-0.162,0.137l-0.463,0.452c-1.487,1.279-3.432,2.054-5.558,2.054c-4.696,0-8.508-3.78-8.508-8.439
  c0-4.665,3.812-8.445,8.508-8.445c4.7,0,8.506,3.78,8.506,8.445C19.822,13.457,18.938,15.501,17.498,17.008z M15.079,14.56h1.561
  v1.029c0,0.354-0.562,0.64-0.915,0.64c-0.358,0-0.646-0.285-0.646-0.64V14.56z M6.76,14.56H7.8v1.029c0,0.354-0.042,0.64-0.396,0.64
  c-0.358,0-0.645-0.285-0.645-0.64V14.56z M16.302,10.399h-0.255c0,0-0.582-1.934-0.821-2.651c-0.239-0.719-0.385-0.988-0.857-0.988
  H8.715c-0.474,0-0.671,0.349-0.857,0.988c-0.188,0.639-0.822,2.651-0.822,2.651H6.577c-0.473,0-0.857,0.38-0.857,0.853v1.992
  c0,0.474,0.385,0.796,0.857,0.796h9.725c0.473,0,0.857-0.322,0.857-0.796v-1.992C17.16,10.779,16.774,10.399,16.302,10.399z
   M8.283,7.842C8.393,7.473,8.59,7.28,8.829,7.28h2.61v0.426h-0.213c-0.119,0-0.332,0.287-0.332,0.401
  c0,0.119,0.099,0.213,0.218,0.213h0.858c0.119,0,0.213-0.094,0.213-0.213c0-0.114,0.109-0.401-0.01-0.401H11.96V7.28h2.408
  c0.233,0,0.321,0.136,0.426,0.426v0.136C14.903,8.138,15.62,10.4,15.62,10.4H7.462C7.462,10.399,8.18,8.216,8.283,7.842z
   M7.487,12.817c-0.474,0-0.858-0.38-0.858-0.853c0-0.468,0.385-0.853,0.858-0.853c0.479,0,0.857,0.385,0.857,0.853
  C8.345,12.438,7.966,12.817,7.487,12.817z M14.561,13.52H9.068L8.84,13.702V13h5.721V13.52z M14.561,12.479H9.068L8.84,12.475
  v-0.516h5.721V12.479z M14.561,11.44H9.068L8.84,11.247V10.92h5.721V11.44z M15.595,12.844c-0.479,0-0.863-0.379-0.863-0.853
  c0-0.468,0.385-0.853,0.863-0.853c0.474,0,0.858,0.385,0.858,0.853C16.453,12.465,16.068,12.844,15.595,12.844z"/>
</svg>
