<?xml version="1.0" encoding="utf-8"?>
<!-- Generator: Adobe Illustrator 16.0.0, SVG Export Plug-In . SVG Version: 6.00 Build 0)  -->
<!DOCTYPE svg PUBLIC "-//W3C//DTD SVG 1.1//EN" "http://www.w3.org/Graphics/SVG/1.1/DTD/svg11.dtd">
<svg version="1.1" id="Layer_1" xmlns="http://www.w3.org/2000/svg" xmlns:xlink="http://www.w3.org/1999/xlink" x="0px" y="0px"
   width="28.081px" height="26px" viewBox="0 0 28.081 26" enable-background="new 0 0 28.081 26" xml:space="preserve">
<path id="icon-floorCar" d="M17.446,20.732h3.9L13.978,26l-7.373-5.268h3.905v-1.971h6.936V20.732z M22.879,21.373
  c0,0.863,0.697,1.564,1.561,1.564S26,22.234,26,21.373v-2.605h-3.121V21.373z M2.081,21.373c0,0.863,0.702,1.564,1.56,1.564
  c0.863,0,1.56-0.703,1.56-1.564v-2.605H2.081V21.373z M28.081,10.425v5.211c0,1.154-0.93,2.084-2.08,2.084H2.081
  C0.932,17.72,0,16.791,0,15.636v-5.211c0-1.153,0.932-2.084,2.081-2.084h1.04c0,0,1.538-4.696,1.996-6.257
  C5.569,0.519,6.043,0,7.197,0h13.686c1.154,0,1.498,0.322,2.086,2.084c0.582,1.759,1.99,6.257,1.99,6.257H26
  C27.151,8.341,28.081,9.271,28.081,10.425z M4.16,8.341h19.76c0,0-1.736-5.538-1.996-6.256c-0.262-0.718-0.463-1.04-1.041-1.04
  h-6.323v1.04h0.52c0.292,0,0.52,0.234,0.52,0.52c0,0.286-0.228,0.521-0.52,0.521H13c-0.285,0-0.52-0.234-0.52-0.521
  c0-0.285,0.234-0.52,0.52-0.52h0.521v-1.04H7.197c-0.577,0-0.779,0.13-1.04,1.04C5.897,2.994,4.16,8.341,4.16,8.341z M6.304,12.511
  c0-1.154-0.927-2.085-2.081-2.085c-1.144,0-2.074,0.931-2.074,2.085c0,1.149,0.931,2.086,2.074,2.086
  C5.377,14.597,6.304,13.66,6.304,12.511z M20.799,14.597H7.281v1.039h13.518V14.597z M20.799,12.511H7.281v1.042h13.518V12.511z
   M20.799,10.425H7.281v1.046h13.518V10.425z M25.932,12.573c0-1.149-0.93-2.086-2.074-2.086c-1.154,0-2.08,0.937-2.08,2.086
  c0,1.155,0.926,2.084,2.08,2.084C25.002,14.658,25.932,13.728,25.932,12.573z"/>
</svg>
