<?xml version="1.0" encoding="utf-8"?>
<!-- Generator: Adobe Illustrator 16.0.0, SVG Export Plug-In . SVG Version: 6.00 Build 0)  -->
<!DOCTYPE svg PUBLIC "-//W3C//DTD SVG 1.1//EN" "http://www.w3.org/Graphics/SVG/1.1/DTD/svg11.dtd">
<svg version="1.1" id="Layer_1" xmlns="http://www.w3.org/2000/svg" xmlns:xlink="http://www.w3.org/1999/xlink" x="0px" y="0px"
   width="28.073px" height="25.914px" viewBox="0 0 28.073 25.914" enable-background="new 0 0 28.073 25.914" xml:space="preserve">
<path id="icon-headset" d="M12.746,25.736c-0.902-0.136-1.468-0.697-1.479-1.593c-0.01-0.886,0.491-1.538,1.425-1.614
  c1.085-0.087,2.187-0.049,3.282-0.006c0.297,0.012,0.638,0.189,0.875,0.384c1.997,1.631,5.528,0.454,6.041-2.046
  c0.055-0.26-0.07-0.572-0.173-0.838c-0.242-0.637-0.724-1.246-0.745-1.878c-0.092-2.462-0.06-4.929-0.021-7.392
  c0.011-0.469,0.098-1.105,0.41-1.371c0.675-0.566,0.557-1.145,0.373-1.813c-1.08-3.844-4.578-6.457-8.66-6.462
  C9.982,1.102,6.478,3.698,5.393,7.543c-0.184,0.646-0.395,1.252,0.34,1.813c0.297,0.227,0.421,0.825,0.427,1.253
  c0.038,2.607,0.011,5.215,0.027,7.822c0,0.799-0.297,1.426-1.063,1.701c-0.799,0.291-1.501,0.075-2.03-0.621
  c-0.146-0.189-0.34-0.367-0.556-0.486c-2.888-1.609-3.439-6.197-0.988-8.411c0.578-0.519,1.279-0.913,1.83-1.452
  C3.73,8.816,4.043,8.33,4.146,7.861C5.112,3.299,9.226,0.006,14.042,0c4.81-0.006,9,3.283,9.88,7.845
  c0.205,1.063,0.907,1.694,1.722,2.144c1.837,1.01,2.43,2.623,2.43,4.486c0,1.895-0.55,3.547-2.456,4.566
  c-0.626,0.34-1.269,1.031-1.469,1.69c-0.82,2.727-2.268,3.903-5.215,3.941c-0.82,0.011-1.539,0.005-2.262,0.696
  c-0.497,0.475-1.556,0.384-2.36,0.545l-0.032-0.161C13.766,25.753,13.249,25.812,12.746,25.736z"/>
</svg>
