<?xml version="1.0" encoding="utf-8"?>
<!-- Generator: Adobe Illustrator 16.0.0, SVG Export Plug-In . SVG Version: 6.00 Build 0)  -->
<!DOCTYPE svg PUBLIC "-//W3C//DTD SVG 1.1//EN" "http://www.w3.org/Graphics/SVG/1.1/DTD/svg11.dtd">
<svg version="1.1" id="Layer_1" xmlns="http://www.w3.org/2000/svg" xmlns:xlink="http://www.w3.org/1999/xlink" x="0px" y="0px"
	 width="21.889px" height="21.891px" viewBox="0 0 21.889 21.891" enable-background="new 0 0 21.889 21.891" xml:space="preserve">
<g>
	<path fill="#1D689D" d="M10.944,0C4.902,0,0,4.902,0,10.946c0,6.043,4.902,10.944,10.944,10.944s10.944-4.901,10.944-10.944
		C21.889,4.902,16.989,0,10.944,0z"/>
	<g>
		<path fill="#FFFFFF" d="M8.633,5.56c0.635-0.409,1.413-0.612,2.336-0.612c1.216,0,2.225,0.29,3.027,0.87
			c0.803,0.579,1.203,1.438,1.203,2.578c0,0.698-0.173,1.286-0.521,1.764c-0.203,0.29-0.596,0.661-1.172,1.112l-0.572,0.443
			c-0.31,0.241-0.518,0.523-0.617,0.846c-0.066,0.203-0.1,0.521-0.105,0.951h-2.185c0.034-0.908,0.12-1.535,0.259-1.882
			s0.498-0.745,1.076-1.196l0.586-0.459c0.193-0.145,0.348-0.304,0.467-0.476c0.213-0.296,0.32-0.62,0.32-0.975
			c0-0.409-0.12-0.781-0.357-1.116c-0.238-0.336-0.674-0.504-1.306-0.504c-0.622,0-1.062,0.207-1.323,0.621
			C9.489,7.938,9.357,8.368,9.357,8.814H7.031C7.094,7.283,7.629,6.198,8.633,5.56z M9.971,14.615h2.409v2.328H9.971V14.615z"/>
	</g>
</g>
</svg>
