<?xml version="1.0" encoding="utf-8"?>
<!-- Generator: Adobe Illustrator 16.0.0, SVG Export Plug-In . SVG Version: 6.00 Build 0)  -->
<!DOCTYPE svg PUBLIC "-//W3C//DTD SVG 1.1//EN" "http://www.w3.org/Graphics/SVG/1.1/DTD/svg11.dtd">
<svg version="1.1" id="Layer_1" xmlns="http://www.w3.org/2000/svg" xmlns:xlink="http://www.w3.org/1999/xlink" x="0px" y="0px"
	 width="24.293px" height="27.533px" viewBox="0 0 24.293 27.533" enable-background="new 0 0 24.293 27.533" xml:space="preserve">
<path id="icon-logout" d="M12.146,27.533C5.439,27.533,0,22.242,0,15.717c0-5.023,3.229-9.305,7.773-11.016v4.207
	c-2.332,1.42-3.889,3.935-3.889,6.809c0,4.438,3.701,8.035,8.262,8.035c4.562,0,8.259-3.598,8.259-8.035
	c0-2.455-1.134-4.646-2.915-6.121V5.117c4.025,1.926,6.803,5.941,6.803,10.6C24.293,22.243,18.856,27.533,12.146,27.533
	L12.146,27.533z M12.633,14.299c-1.075,0-1.945-0.847-1.945-1.892V1.891c0-1.043,0.87-1.891,1.945-1.891
	c1.071,0,1.942,0.848,1.942,1.891v10.517C14.575,13.452,13.705,14.299,12.633,14.299L12.633,14.299z"/>
</svg>
