<?xml version="1.0" encoding="utf-8"?>
<!-- Generator: Adobe Illustrator 16.0.0, SVG Export Plug-In . SVG Version: 6.00 Build 0)  -->
<!DOCTYPE svg PUBLIC "-//W3C//DTD SVG 1.1//EN" "http://www.w3.org/Graphics/SVG/1.1/DTD/svg11.dtd">
<svg version="1.1" id="Layer_1" xmlns="http://www.w3.org/2000/svg" xmlns:xlink="http://www.w3.org/1999/xlink" x="0px" y="0px"
	 width="22.9px" height="17.179px" viewBox="1.074 3.944 22.9 17.179" enable-background="new 1.074 3.944 22.9 17.179"
	 xml:space="preserve">
<g>
	<g>
		<path fill="#FFFFFF" d="M22.255,10.815H2.791c-0.947,0-1.717,0.769-1.717,1.718s0.77,1.719,1.717,1.719h19.464
			c0.949,0,1.72-0.77,1.72-1.719S23.204,10.815,22.255,10.815z M22.255,17.688H2.791c-0.947,0-1.717,0.769-1.717,1.717
			c0,0.949,0.77,1.719,1.717,1.719h19.464c0.949,0,1.72-0.77,1.72-1.719S23.204,17.688,22.255,17.688z M2.791,7.381h19.466
			c0.947,0,1.718-0.77,1.718-1.717c0-0.948-0.771-1.72-1.718-1.72H2.791c-0.947,0-1.717,0.771-1.717,1.72
			C1.074,6.611,1.843,7.381,2.791,7.381z"/>
	</g>
</g>
</svg>
