<?xml version="1.0" encoding="utf-8"?>
<!-- Generator: Adobe Illustrator 16.0.0, SVG Export Plug-In . SVG Version: 6.00 Build 0)  -->
<!DOCTYPE svg PUBLIC "-//W3C//DTD SVG 1.1//EN" "http://www.w3.org/Graphics/SVG/1.1/DTD/svg11.dtd">
<svg version="1.1" id="Layer_1" xmlns="http://www.w3.org/2000/svg" xmlns:xlink="http://www.w3.org/1999/xlink" x="0px" y="0px"
	 width="31.135px" height="20.757px" viewBox="0 0 31.135 20.757" enable-background="new 0 0 31.135 20.757" xml:space="preserve">
<path id="icon-payments" d="M22.889,18.869v-4.041h-1.48c0.471-1.482,0.744-2.846,0.744-4.289c0-1.288-0.211-2.383-0.588-3.868h1.324
	V2.312l8.246,8.279L22.889,18.869z M20.676,10.378c0,5.723-4.637,10.379-10.34,10.379C4.638,20.757,0,16.101,0,10.378
	C0,4.656,4.638,0,10.336,0C16.039,0,20.676,4.656,20.676,10.378z M13.817,12.062c0-1.339-0.66-2.179-2.51-2.797
	c-1.231-0.424-1.731-0.703-1.731-1.07c0-0.326,0.26-0.637,1.123-0.637c1.1,0,1.807,0.34,2.203,0.505l0.448-1.964
	c-0.528-0.231-0.798-0.438-2.274-0.467V4.448H9.6V5.75C8.123,6.085,6.963,7.146,6.963,8.486c0,1.485,1.085,2.236,2.684,2.75
	c1.086,0.34,1.529,0.623,1.529,1.076c0,0.473-0.519,0.68-1.265,0.68c-1.015,0-1.9-0.326-2.561-0.65l-0.426,2.031
	c0.558,0.293,1.198,0.576,2.675,0.633v1.303h1.477v-1.434C12.553,14.552,13.817,13.431,13.817,12.062z"/>
</svg>
