<?xml version="1.0" encoding="utf-8"?>
<!-- Generator: Adobe Illustrator 16.0.0, SVG Export Plug-In . SVG Version: 6.00 Build 0)  -->
<!DOCTYPE svg PUBLIC "-//W3C//DTD SVG 1.1//EN" "http://www.w3.org/Graphics/SVG/1.1/DTD/svg11.dtd">
<svg version="1.1" id="Layer_1" xmlns="http://www.w3.org/2000/svg" xmlns:xlink="http://www.w3.org/1999/xlink" x="0px" y="0px"
	 width="21.054px" height="28.612px" viewBox="0 0 21.054 28.612" enable-background="new 0 0 21.054 28.612" xml:space="preserve">
<path id="icon-phone" d="M9.246,7.77v0.005L7.114,9.017L2.547,1.383l2.132-1.248c0.459-0.27,1.053-0.123,1.328,0.341l3.585,5.972
	v0.004C9.851,6.889,9.737,7.482,9.246,7.77z M20.918,25.374v-0.005l-3.482-5.804c-0.275-0.459-0.868-0.604-1.333-0.341l-2.133,1.248
	l4.47,7.472l2.133-1.242h0.006C21.064,26.416,21.178,25.817,20.918,25.374z M17.857,28.268l-4.459-7.449
	c-1.053,0.615-1.938-0.395-3.58-2.592c-0.027-0.016-3.196-5.291-3.207-5.361c-0.654-1.414-1.182-2.861-0.081-3.51L1.958,1.729
	C0.775,2.604-2.577,7.364,3.697,18.146C10.305,29.51,16.594,29.04,17.857,28.268z"/>
</svg>
