<?xml version="1.0" encoding="utf-8"?>
<!-- Generator: Adobe Illustrator 16.0.0, SVG Export Plug-In . SVG Version: 6.00 Build 0)  -->
<!DOCTYPE svg PUBLIC "-//W3C//DTD SVG 1.1//EN" "http://www.w3.org/Graphics/SVG/1.1/DTD/svg11.dtd">
<svg version="1.1" id="Layer_1" xmlns="http://www.w3.org/2000/svg" xmlns:xlink="http://www.w3.org/1999/xlink" x="0px" y="0px"
	 width="15.454px" height="15.104px" viewBox="4.771 4.886 15.454 15.104" enable-background="new 4.771 4.886 15.454 15.104"
	 xml:space="preserve">
<path fill="#FFFFFF" d="M19.785,17.428l-2.854-2.854c0.532-0.941,0.84-2.027,0.84-3.186c0-3.585-2.916-6.501-6.5-6.501
	c-3.584,0-6.5,2.916-6.5,6.501c0,3.583,2.916,6.499,6.5,6.499c1.342,0,2.588-0.407,3.624-1.106l2.77,2.771
	c0.293,0.293,0.678,0.439,1.061,0.439c0.385,0,0.769-0.146,1.062-0.439C20.371,18.963,20.371,18.014,19.785,17.428z M6.771,11.387
	c0-2.482,2.02-4.501,4.5-4.501c2.482,0,4.5,2.019,4.5,4.501c0,2.48-2.019,4.499-4.5,4.499C8.791,15.886,6.771,13.867,6.771,11.387z"
	/>
</svg>
