<?xml version="1.0" encoding="utf-8"?>
<!-- Generator: Adobe Illustrator 16.0.0, SVG Export Plug-In . SVG Version: 6.00 Build 0)  -->
<!DOCTYPE svg PUBLIC "-//W3C//DTD SVG 1.1//EN" "http://www.w3.org/Graphics/SVG/1.1/DTD/svg11.dtd">
<svg version="1.1" id="Layer_1" xmlns="http://www.w3.org/2000/svg" xmlns:xlink="http://www.w3.org/1999/xlink" x="0px" y="0px"
   width="17.056px" height="24.759px" viewBox="0 0 17.056 24.759" enable-background="new 0 0 17.056 24.759" xml:space="preserve">
<path id="icon-staleUnits" d="M16.605,1.832c0.252,0,0.45-0.203,0.45-0.457V0H0v1.375c0,0.254,0.198,0.457,0.451,0.457h1.464
  c0.033,7.906,4.01,8.071,4.01,10.553c0,2.465-3.901,4.435-3.977,10.541H0.451C0.198,22.926,0,23.129,0,23.383v1.376h17.056v-1.376
  c0-0.254-0.198-0.457-0.45-0.457h-1.41c-0.07-6.106-3.977-8.076-3.977-10.541c0-2.481,3.977-2.646,4.017-10.553H16.605z
   M9.975,12.385c0,2.394,3.906,4.413,3.979,10.541h-0.804c-0.154-0.544-0.683-1.199-1.596-1.684l-1.183-0.621
  c-0.748-0.396-1.194-0.661-1.337-0.798c-0.144-0.138-0.313-0.446-0.507-0.925c-0.192,0.479-0.362,0.787-0.511,0.925
  c-0.149,0.137-0.594,0.401-1.348,0.798L5.48,21.242c-0.913,0.484-1.447,1.14-1.606,1.684H3.191
  c0.077-6.128,3.983-8.147,3.983-10.541c0-2.492-3.977-2.646-4.016-10.553h10.828C13.953,9.738,9.975,9.893,9.975,12.385z
   M4.738,6.801c1.332,0.863,2.635,1.298,3.901,1.298c1.271,0,2.574-0.435,3.917-1.298c-0.226,0.368-0.722,0.973-1.479,1.82
  L9.959,9.877c-0.506,0.559-0.809,0.945-0.918,1.166c-0.104,0.213-0.198,0.627-0.27,1.23C8.755,12.455,8.716,12.73,8.65,13.1
  c-0.061-0.369-0.105-0.645-0.122-0.826c-0.071-0.604-0.165-1.018-0.27-1.23c-0.109-0.221-0.418-0.607-0.918-1.166L6.212,8.621
  C5.447,7.773,4.951,7.169,4.738,6.801z"/>
</svg>
