<?xml version="1.0" encoding="utf-8"?>
<!-- Generator: Adobe Illustrator 16.0.0, SVG Export Plug-In . SVG Version: 6.00 Build 0)  -->
<!DOCTYPE svg PUBLIC "-//W3C//DTD SVG 1.1//EN" "http://www.w3.org/Graphics/SVG/1.1/DTD/svg11.dtd">
<svg version="1.1" id="Layer_1" xmlns="http://www.w3.org/2000/svg" xmlns:xlink="http://www.w3.org/1999/xlink" x="0px" y="0px"
	 width="28.799px" height="28.799px" viewBox="0 0 28.799 28.799" enable-background="new 0 0 28.799 28.799" xml:space="preserve">
<path fill="#1CAF5D" d="M26.872,7.174c-1.287-2.211-3.037-3.957-5.246-5.244C19.413,0.642,17.006,0,14.399,0
	c-2.605,0-5.011,0.642-7.221,1.93C4.966,3.217,3.216,4.963,1.931,7.174C0.644,9.387,0,11.793,0,14.398s0.644,5.014,1.931,7.223
	c1.285,2.213,3.035,3.961,5.248,5.248c2.21,1.287,4.615,1.93,7.221,1.93c2.607,0,5.013-0.643,7.226-1.93
	c2.209-1.287,3.959-3.035,5.246-5.248c1.285-2.209,1.928-4.617,1.928-7.223S28.157,9.387,26.872,7.174z"/>
<path fill="#FFFFFF" d="M22.122,11.207l-8.544,8.729c-0.769,0.786-1.938,0.902-2.596,0.258c-0.659-0.645-1.194-1.174-1.192-1.177
	c0.002-0.002-1.649-1.622-2.436-2.392l-0.64-0.626c-0.787-0.77-0.901-1.938-0.258-2.597c0.645-0.657,1.815-0.567,2.601,0.203
	l2.879,2.469l7.792-7.212c0.77-0.785,1.939-0.901,2.596-0.257C22.981,9.25,22.891,10.421,22.122,11.207z"/>
</svg>
