<?xml version="1.0" encoding="utf-8"?>
<!-- Generator: Adobe Illustrator 16.0.0, SVG Export Plug-In . SVG Version: 6.00 Build 0)  -->
<!DOCTYPE svg PUBLIC "-//W3C//DTD SVG 1.1//EN" "http://www.w3.org/Graphics/SVG/1.1/DTD/svg11.dtd">
<svg version="1.1" id="Layer_1" xmlns="http://www.w3.org/2000/svg" xmlns:xlink="http://www.w3.org/1999/xlink" x="0px" y="0px"
	 width="18px" height="17.999px" viewBox="3.445 3.509 18 17.999" enable-background="new 3.445 3.509 18 17.999"
	 xml:space="preserve">
<path fill="#1CAF5D" d="M7.931,4.715c1.381-0.805,2.885-1.206,4.514-1.206c1.629,0,3.133,0.401,4.516,1.206
	c1.381,0.805,2.475,1.896,3.279,3.278c0.803,1.383,1.205,2.886,1.205,4.515s-0.402,3.133-1.205,4.514
	c-0.805,1.383-1.898,2.478-3.279,3.281c-1.383,0.803-2.887,1.205-4.516,1.205c-1.629,0-3.133-0.402-4.514-1.205
	c-1.383-0.805-2.477-1.898-3.279-3.281c-0.805-1.381-1.207-2.885-1.207-4.514s0.402-3.132,1.207-4.515
	C5.454,6.612,6.548,5.52,7.931,4.715z M11.63,12.163l-1.537-1.539L7.47,13.247l4.16,4.176l6.197-6.195l-2.64-2.623L11.63,12.163z"/>
</svg>
