<?xml version="1.0" encoding="utf-8"?>
<!-- Generator: Adobe Illustrator 16.0.0, SVG Export Plug-In . SVG Version: 6.00 Build 0)  -->
<!DOCTYPE svg PUBLIC "-//W3C//DTD SVG 1.1//EN" "http://www.w3.org/Graphics/SVG/1.1/DTD/svg11.dtd">
<svg version="1.1" id="Layer_1" xmlns="http://www.w3.org/2000/svg" xmlns:xlink="http://www.w3.org/1999/xlink" x="0px" y="0px"
	 width="15.711px" height="19.066px" viewBox="4.67 2.949 15.711 19.066" enable-background="new 4.67 2.949 15.711 19.066"
	 xml:space="preserve">
<g>
	<path fill="#0268AD" d="M6.082,4.21h6.992v2.773c0,0.036,0.016,0.072,0.047,0.099c0.027,0.026,0.07,0.04,0.111,0.04h3.061v1.17
		c0.213-0.05,0.434-0.08,0.66-0.08c0.264,0,0.516,0.035,0.754,0.1v-1.5c0-0.167-0.076-0.327-0.209-0.446l-3.629-3.232
		c-0.133-0.117-0.312-0.185-0.498-0.185H5.377c-0.186,0-0.367,0.067-0.5,0.185C4.746,3.251,4.67,3.414,4.67,3.58v14.675
		c0,0.166,0.076,0.326,0.207,0.445c0.133,0.116,0.314,0.184,0.5,0.184h8.043v-1.26H6.082V4.21z"/>
	<path fill="#0268AD" d="M16.967,15.954c1.885,0,3.414-1.529,3.414-3.416c0-1.885-1.529-3.414-3.414-3.414
		c-1.887,0-3.416,1.529-3.416,3.414C13.551,14.425,15.08,15.954,16.967,15.954z"/>
	<path fill="#0268AD" d="M14.48,16.021v5.994l2.471-1.8l2.502,1.8v-5.994c-0.623,0.664-1.506,1.082-2.486,1.082
		C15.984,17.104,15.102,16.686,14.48,16.021z"/>
	<g>
		<line fill="none" x1="7.861" y1="9.124" x2="12.795" y2="9.124"/>
		<rect x="7.861" y="8.624" fill="#0268AD" width="4.934" height="1"/>
	</g>
	<g>
		<line fill="none" x1="7.861" y1="11.874" x2="12.795" y2="11.874"/>
		<rect x="7.861" y="11.374" fill="#0268AD" width="4.934" height="1"/>
	</g>
	<g>
		<line fill="none" x1="7.861" y1="14.622" x2="12.795" y2="14.622"/>
		<rect x="7.861" y="14.122" fill="#0268AD" width="4.934" height="1"/>
	</g>
</g>
</svg>
