<?xml version="1.0" encoding="utf-8"?>
<!-- Generator: Adobe Illustrator 16.0.0, SVG Export Plug-In . SVG Version: 6.00 Build 0)  -->
<!DOCTYPE svg PUBLIC "-//W3C//DTD SVG 1.1//EN" "http://www.w3.org/Graphics/SVG/1.1/DTD/svg11.dtd">
<svg version="1.1" id="Layer_1" xmlns="http://www.w3.org/2000/svg" xmlns:xlink="http://www.w3.org/1999/xlink" x="0px" y="0px"
   width="29.71px" height="25.857px" viewBox="0 0 29.71 25.857" enable-background="new 0 0 29.71 25.857" xml:space="preserve">
<path id="icon-topAuctions" d="M24.208,19.856h3.302v2.756c0,0.913-0.738,1.655-1.651,1.655s-1.65-0.742-1.65-1.655V19.856z M2.201,22.612
  c0,0.913,0.744,1.655,1.651,1.655c0.913,0,1.65-0.742,1.65-1.655v-2.756H2.201V22.612z M29.71,11.03v5.513
  c0,1.222-0.985,2.206-2.2,2.206h-8.809l-3.032-2.206h6.338v-1.101H7.703v1.101h6.338l-3.032,2.206H2.201
  C0.985,18.749,0,17.765,0,16.543V11.03C0,9.81,0.985,8.825,2.201,8.825h1.101c0,0,1.628-4.968,2.113-6.618
  C5.893,0.549,6.394,0,7.615,0h14.48c1.222,0,1.585,0.341,2.207,2.207c0.616,1.857,2.107,6.618,2.107,6.618h1.101
  C28.725,8.825,29.71,9.81,29.71,11.03z M6.668,13.237c0-1.221-0.979-2.207-2.201-2.207c-1.21,0-2.195,0.986-2.195,2.207
  c0,1.216,0.985,2.205,2.195,2.205C5.688,15.442,6.668,14.453,6.668,13.237z M25.309,8.825c0,0-1.838-5.86-2.113-6.618
  c-0.275-0.762-0.49-1.102-1.101-1.102h-6.689v1.102h0.55c0.309,0,0.55,0.246,0.55,0.549s-0.241,0.551-0.55,0.551h-2.201
  c-0.303,0-0.551-0.248-0.551-0.551s0.248-0.549,0.551-0.549h0.55V1.105h-6.69c-0.61,0-0.826,0.139-1.1,1.102
  C6.239,3.169,4.402,8.825,4.402,8.825H25.309z M22.008,13.237H7.703v1.1h14.305V13.237z M22.008,11.03H7.703v1.106h14.305V11.03z
   M27.438,13.304c0-1.217-0.984-2.207-2.195-2.207c-1.222,0-2.201,0.99-2.201,2.207c0,1.22,0.979,2.205,2.201,2.205
  C26.453,15.509,27.438,14.523,27.438,13.304z M7.152,23.757h4.077v2.101h7.251v-2.101h4.077l-7.702-5.602L7.152,23.757z"/>
</svg>
