<?xml version="1.0" encoding="utf-8"?>
<!-- Generator: Adobe Illustrator 16.0.0, SVG Export Plug-In . SVG Version: 6.00 Build 0)  -->
<!DOCTYPE svg PUBLIC "-//W3C//DTD SVG 1.1//EN" "http://www.w3.org/Graphics/SVG/1.1/DTD/svg11.dtd">
<svg version="1.1" id="Layer_1" xmlns="http://www.w3.org/2000/svg" xmlns:xlink="http://www.w3.org/1999/xlink" x="0px" y="0px"
	 width="25.308px" height="23.108px" viewBox="0 0 25.308 23.108" enable-background="new 0 0 25.308 23.108" xml:space="preserve">
<path id="icon-topMovers" d="M13.26,0h-1.21L0,11.025v1.14h3.614v10.943h18.079V12.165h3.614v-1.223L13.26,0z M10.537,21.49h-2.62v-7.093
	H7.89l-1.937,0.865l-0.435-2.031l2.834-1.227h2.184L10.537,21.49L10.537,21.49z M15.846,21.661h-0.017
	c-2.816,0-3.944-2.316-3.944-4.913c0-2.581,1.128-4.913,3.961-4.913s3.962,2.332,3.962,4.913
	C19.808,19.345,18.679,21.661,15.846,21.661z M17.089,16.748c0,2.013-0.495,2.931-1.232,2.931h-0.012
	c-0.753,0-1.243-0.918-1.243-2.931c0-2.015,0.49-2.916,1.243-2.916C16.594,13.832,17.089,14.733,17.089,16.748z"/>
</svg>
