<?xml version="1.0" encoding="utf-8"?>
<!-- Generator: Adobe Illustrator 19.0.0, SVG Export Plug-In . SVG Version: 6.00 Build 0)  -->
<!DOCTYPE svg PUBLIC "-//W3C//DTD SVG 1.1//EN" "http://www.w3.org/Graphics/SVG/1.1/DTD/svg11.dtd">
<svg version="1.1" id="Layer_1" xmlns="http://www.w3.org/2000/svg" xmlns:xlink="http://www.w3.org/1999/xlink" x="0px" y="0px"
	 viewBox="0 0 24 23.1" style="enable-background:new 0 0 24 23.1;" xml:space="preserve">
<g id="XMLID_2_">
	<path id="XMLID_3_" d="M24,21.7c0,0.8-0.6,1.4-1.4,1.4H1.4c-0.8,0-1.4-0.6-1.4-1.4v-4.6c0-0.8,0.6-1.4,1.4-1.4h6.2
		c0.4,1.1,1.4,1.8,2.6,1.8h3.7c1.2,0,2.2-0.8,2.6-1.8h6.2c0.8,0,1.4,0.6,1.4,1.4V21.7z M18.5,8.3h-3.7v6.5c0,0.5-0.4,0.9-0.9,0.9
		h-3.7c-0.5,0-0.9-0.4-0.9-0.9V8.3H5.5c-0.4,0-0.7-0.2-0.9-0.6C4.5,7.4,4.6,7,4.9,6.7l6.5-6.5C11.5,0.1,11.8,0,12,0s0.5,0.1,0.6,0.3
		l6.5,6.5c0.3,0.3,0.3,0.7,0.2,1C19.2,8.1,18.8,8.3,18.5,8.3z M17.5,19.4c-0.5,0-0.9,0.4-0.9,0.9s0.4,0.9,0.9,0.9s0.9-0.4,0.9-0.9
		S18,19.4,17.5,19.4z M21.2,19.4c-0.5,0-0.9,0.4-0.9,0.9s0.4,0.9,0.9,0.9c0.5,0,0.9-0.4,0.9-0.9S21.7,19.4,21.2,19.4z"/>
</g>
</svg>
