<?xml version="1.0" encoding="utf-8"?>
<!-- Generator: Adobe Illustrator 16.0.0, SVG Export Plug-In . SVG Version: 6.00 Build 0)  -->
<!DOCTYPE svg PUBLIC "-//W3C//DTD SVG 1.1//EN" "http://www.w3.org/Graphics/SVG/1.1/DTD/svg11.dtd">
<svg version="1.1" id="Layer_1" xmlns="http://www.w3.org/2000/svg" xmlns:xlink="http://www.w3.org/1999/xlink" x="0px" y="0px"
	 width="32.061px" height="32.059px" viewBox="0 0 32.061 32.059" enable-background="new 0 0 32.061 32.059" xml:space="preserve">
<path fill="#F49D1E" d="M30.662,12.639L19.424,1.399c-1.865-1.865-4.921-1.865-6.788,0L1.399,12.639
	c-1.865,1.865-1.865,4.92,0,6.787l11.237,11.232c1.866,1.867,4.922,1.867,6.788,0l11.238-11.232
	C32.527,17.559,32.527,14.504,30.662,12.639z"/>
<rect x="13.535" y="20.183" fill="#FFFFFF" width="4.993" height="4.172"/>
<path fill="#FFFFFF" d="M18.176,16.466c-0.066,0.329-0.244,0.62-0.535,0.862c-0.289,0.237-0.605,0.361-0.938,0.361h-1.347
	c-0.334,0-0.646-0.124-0.938-0.361c-0.29-0.242-0.469-0.533-0.535-0.862l-1.448-7.539c-0.066-0.33,0-0.619,0.202-0.858
	c0.198-0.242,0.467-0.363,0.797-0.363h5.167c0.348,0,0.621,0.121,0.82,0.363c0.203,0.239,0.27,0.528,0.203,0.858L18.176,16.466z"/>
</svg>
