<?xml version="1.0" encoding="utf-8"?>
<!-- Generator: Adobe Illustrator 16.0.0, SVG Export Plug-In . SVG Version: 6.00 Build 0)  -->
<!DOCTYPE svg PUBLIC "-//W3C//DTD SVG 1.1//EN" "http://www.w3.org/Graphics/SVG/1.1/DTD/svg11.dtd">
<svg version="1.1" id="Layer_1" xmlns="http://www.w3.org/2000/svg" xmlns:xlink="http://www.w3.org/1999/xlink" x="0px" y="0px"
	 width="20.037px" height="20.036px" viewBox="2.456 2.47 20.037 20.036" enable-background="new 2.456 2.47 20.037 20.036"
	 xml:space="preserve">
<g>
	<path fill="#F49D1E" d="M14.596,3.344c-1.166-1.166-3.077-1.166-4.243,0L3.33,10.368c-1.166,1.166-1.166,3.075,0,4.241l7.023,7.021
		c1.166,1.166,3.077,1.166,4.243,0l7.022-7.021c1.166-1.166,1.166-3.075,0-4.241L14.596,3.344z M13.913,16.087
		c0,0.662-0.647,1.203-1.439,1.203c-0.791,0-1.439-0.541-1.439-1.203s0.648-1.203,1.439-1.203
		C13.266,14.884,13.913,15.425,13.913,16.087z M14.13,10.567c-0.229,1.196-0.481,2.334-0.562,2.533c0,0,0,0-0.168,0.139
		c-0.166,0.137-0.166,0.137-0.166,0.137c-0.205,0.039-0.548,0.07-0.761,0.07c-0.214,0-0.557-0.031-0.761-0.07c0,0,0,0-0.169-0.137
		C11.375,13.1,11.375,13.1,11.375,13.1c-0.077-0.198-0.328-1.336-0.559-2.533C10.589,9.372,10.4,8.232,10.4,8.035
		c0,0,0,0,0.116-0.138c0.115-0.141,0.115-0.141,0.115-0.141c0.189-0.038,1.014-0.069,1.834-0.069c0.818,0,1.651,0.031,1.85,0.069
		c0,0,0,0,0.115,0.141c0.116,0.138,0.116,0.138,0.116,0.138C14.547,8.232,14.357,9.372,14.13,10.567z"/>
</g>
</svg>
