<?xml version="1.0" encoding="utf-8"?>
<!-- Generator: Adobe Illustrator 16.0.0, SVG Export Plug-In . SVG Version: 6.00 Build 0)  -->
<!DOCTYPE svg PUBLIC "-//W3C//DTD SVG 1.1//EN" "http://www.w3.org/Graphics/SVG/1.1/DTD/svg11.dtd">
<svg version="1.1" id="Layer_1" xmlns="http://www.w3.org/2000/svg" xmlns:xlink="http://www.w3.org/1999/xlink" x="0px" y="0px"
	 width="416.085px" height="89.707px" viewBox="0 0 416.085 89.707" enable-background="new 0 0 416.085 89.707"
	 xml:space="preserve">
<g>
	<path fill="#046799" d="M107.886,398.288c-12.564,0-22.75-10.187-22.75-22.75s10.186-22.75,22.75-22.75
		c10.29,0,18.979,6.834,21.791,16.209h-16.988v12.812h17.064C127.029,391.321,118.274,398.288,107.886,398.288"/>
	<polygon fill="#046799" points="148.496,349.152 186.24,349.152 186.24,358.946 159.435,358.946 159.435,369.096 183.024,369.096 
		183.024,378.89 159.435,378.89 159.435,389.398 186.599,389.398 186.599,399.192 148.496,399.192 	"/>
	<path fill="#046799" d="M212.837,348.795h10.151l21.445,50.397h-11.508l-4.575-11.223h-21.16l-4.574,11.223H191.39L212.837,348.795
		z M224.418,378.247l-6.647-16.227l-6.649,16.227H224.418z"/>
	<path fill="#046799" d="M249.205,349.152h22.875c6.363,0,11.295,1.787,14.585,5.076c2.789,2.788,4.289,6.719,4.289,11.438v0.143
		c0,8.078-4.361,13.153-10.723,15.512l12.223,17.872h-12.867l-10.723-16.012h-0.143h-8.508v16.012h-11.009V349.152z
		 M271.365,373.458c5.362,0,8.438-2.86,8.438-7.077v-0.143c0-4.719-3.291-7.148-8.65-7.148h-10.938v14.368H271.365z"/>
	<polygon fill="#046799" points="-114.333,349.836 -104.108,349.836 -80.49,380.872 -80.49,349.836 -69.546,349.836 -69.546,400.24 
		-78.978,400.24 -103.388,368.197 -103.388,400.24 -114.333,400.24 	"/>
	<polygon fill="#046799" points="-62.134,349.836 -24.114,349.836 -24.114,359.702 -51.116,359.702 -51.116,369.926 
		-27.355,369.926 -27.355,379.792 -51.116,379.792 -51.116,390.376 -23.755,390.376 -23.755,400.24 -62.134,400.24 	"/>
	<polygon fill="#046799" points="-1.94,374.606 -18.791,349.836 -5.83,349.836 4.754,366.182 15.414,349.836 28.014,349.836 
		11.164,374.462 28.733,400.24 15.772,400.24 4.467,382.959 -6.91,400.24 -19.51,400.24 	"/>
	<path fill="#046799" d="M71.653,360.061H57.315v40.18H46.226v-40.18H30.889v-10.225h47.409
		C74.089,354.208,71.653,360.061,71.653,360.061"/>
	<path fill="#046799" d="M132.854,371.435h-17.74v7.938h17.789c-1.844,12.133-12.349,21.46-24.991,21.46
		c-13.94,0-25.283-11.342-25.283-25.283s11.342-25.284,25.283-25.284c11.692,0,21.545,7.983,24.421,18.781h8.156
		c-3.032-15.214-16.483-26.718-32.577-26.718c-18.319,0-33.22,14.904-33.22,33.221s14.901,33.221,33.22,33.221
		c18.319,0,33.221-14.904,33.221-33.221c0-1.395-0.097-2.767-0.265-4.117L132.854,371.435L132.854,371.435z"/>
	<path fill="#046799" d="M95.549,427.206c-1.647,1.629-3.035,2.263-4.951,2.263c-3.354,0-5.982-2.816-5.982-6.456
		c0-3.629,2.561-6.365,5.958-6.365c1.853,0,3.303,0.638,4.849,2.132l0.538,0.521l1.897-1.957l-0.569-0.521
		c-1.557-1.425-3.443-2.743-6.69-2.743c-4.882,0-8.707,3.944-8.707,9.024c0,5.01,3.804,8.934,8.662,8.934
		c3.364,0,5.349-1.511,6.847-2.989l0.545-0.538l-1.872-1.818L95.549,427.206z"/>
	<path fill="#046799" d="M124.516,414.239l-8.1,17.523h2.881l2.023-4.452h8.418l2.024,4.452h2.955l-8.102-17.523H124.516z
		 M122.51,424.741l3.03-6.649l3.021,6.649H122.51z"/>
	<path fill="#046799" d="M161.246,414.352h-6.523v17.411h2.68v-5.93h3.548c4.162,0,6.958-2.34,6.958-5.864
		C167.908,416.557,165.292,414.352,161.246,414.352 M161.021,423.239h-3.618v-6.295h3.755c1.223,0,4.067,0.302,4.067,3.136
		C165.225,422,163.574,423.239,161.021,423.239"/>
	<rect x="188.522" y="414.352" fill="#046799" width="2.683" height="17.411"/>
	<polygon fill="#046799" points="211.774,416.945 217.321,416.945 217.321,431.763 220,431.763 220,416.945 225.544,416.945 
		225.544,414.352 211.774,414.352 	"/>
	<path fill="#046799" d="M250.257,414.239l-8.105,17.523h2.884l2.022-4.452h8.425l2.022,4.452h2.954l-8.107-17.523H250.257z
		 M248.245,424.741l3.032-6.649l3.025,6.649H248.245z"/>
	<polygon fill="#046799" points="283.143,429.173 283.143,414.353 280.465,414.353 280.465,431.763 292.488,431.763 
		292.488,429.173 	"/>
	<polygon fill="#046799" points="296.959,431.764 296.454,431.764 296.454,428.104 295.425,428.104 295.425,427.653 
		297.995,427.653 297.995,428.104 296.959,428.104 	"/>
	<polygon fill="#046799" points="298.391,427.653 299.242,427.653 300.065,430.912 300.076,430.912 300.901,427.653 
		301.752,427.653 301.752,431.764 301.244,431.764 301.244,428.171 301.236,428.171 300.325,431.764 299.818,431.764 
		298.906,428.171 298.897,428.171 298.897,431.764 298.391,431.764 	"/>
</g>
<g display="none">
	<text transform="matrix(1 0 0 1 91.7021 720.2969)" display="inline" fill="#90959C" font-family="'ArialMT'" font-size="10">Secondary</text>
	<circle display="inline" fill="#046799" cx="123.429" cy="785.115" r="50"/>
	<g display="inline">
		<g>
			<text transform="matrix(1 0 0 1 208.8672 755.541)" fill="#90959C" font-family="'ArialMT'" font-size="10">Hex</text>
		</g>
		<g>
			<text transform="matrix(1 0 0 1 222.207 785.541)" fill="#90959C" font-family="'ArialMT'" font-size="10">r</text>
		</g>
		<g>
			<text transform="matrix(1 0 0 1 221.6504 815.541)" fill="#90959C" font-family="'ArialMT'" font-size="10">g</text>
		</g>
		<g>
			<text transform="matrix(1 0 0 1 222.7588 845.541)" fill="#90959C" font-family="'ArialMT'" font-size="10">b</text>
		</g>
		<text transform="matrix(1 0 0 1 234.4287 755.541)" fill="#1E3160" font-family="'HelveticaNeue-Medium'" font-size="18">0067ac</text>
		<text transform="matrix(1 0 0 1 234.4287 785.541)" fill="#1E3160" font-family="'HelveticaNeue-Medium'" font-size="18">0</text>
		<text transform="matrix(1 0 0 1 234.4287 815.541)" fill="#1E3160" font-family="'HelveticaNeue-Medium'" font-size="18">103</text>
		<text transform="matrix(1 0 0 1 234.4287 845.541)" fill="#1E3160" font-family="'HelveticaNeue-Medium'" font-size="18">172</text>
	</g>
</g>
<g display="none">
	<text transform="matrix(1 0 0 1 374.4756 263.3413)" display="inline" fill="#90959C" font-family="'ArialMT'" font-size="10">Primary blue</text>
	<circle display="inline" fill="#046799" cx="411.762" cy="328.159" r="50"/>
	<g display="inline">
		<g>
			<text transform="matrix(1 0 0 1 497.2002 298.585)" fill="#90959C" font-family="'ArialMT'" font-size="10">Hex</text>
		</g>
		<g>
			<text transform="matrix(1 0 0 1 510.54 328.585)" fill="#90959C" font-family="'ArialMT'" font-size="10">r</text>
		</g>
		<g>
			<text transform="matrix(1 0 0 1 509.9834 358.585)" fill="#90959C" font-family="'ArialMT'" font-size="10">g</text>
		</g>
		<g>
			<text transform="matrix(1 0 0 1 511.0918 388.585)" fill="#90959C" font-family="'ArialMT'" font-size="10">b</text>
		</g>
		<text transform="matrix(1 0 0 1 522.7617 298.585)" fill="#1E3160" font-family="'HelveticaNeue-Medium'" font-size="18">006699</text>
		<text transform="matrix(1 0 0 1 522.7617 328.585)" fill="#1E3160" font-family="'HelveticaNeue-Medium'" font-size="18">0</text>
		<text transform="matrix(1 0 0 1 522.7617 358.585)" fill="#1E3160" font-family="'HelveticaNeue-Medium'" font-size="18">103</text>
		<text transform="matrix(1 0 0 1 522.7617 388.585)" fill="#1E3160" font-family="'HelveticaNeue-Medium'" font-size="18">172</text>
	</g>
</g>
<g display="none">
	
		<image display="inline" overflow="visible" opacity="0.25" width="446" height="127" xlink:href="78E1127B704A6671.png"  transform="matrix(1 0 0 1 -129.5713 200.2676)">
	</image>
	<g display="inline">
		<rect x="-126.571" y="204.268" fill="#046799" width="440" height="121"/>
	</g>
</g>
<g display="none">
	<path display="inline" fill="#FFFFFF" d="M107.886,275.825c-12.564,0-22.75-10.187-22.75-22.75s10.186-22.75,22.75-22.75
		c10.29,0,18.979,6.834,21.791,16.209h-16.988v12.812h17.064C127.029,268.858,118.274,275.825,107.886,275.825"/>
	<polygon display="inline" fill="#FFFFFF" points="148.496,226.689 186.24,226.689 186.24,236.483 159.435,236.483 159.435,246.633 
		183.024,246.633 183.024,256.427 159.435,256.427 159.435,266.935 186.599,266.935 186.599,276.729 148.496,276.729 	"/>
	<path display="inline" fill="#FFFFFF" d="M212.837,226.332h10.151l21.445,50.397h-11.508l-4.575-11.223h-21.16l-4.574,11.223
		H191.39L212.837,226.332z M224.418,255.784l-6.647-16.227l-6.649,16.227H224.418z"/>
	<path display="inline" fill="#FFFFFF" d="M249.205,226.688h22.875c6.363,0,11.295,1.787,14.585,5.076
		c2.789,2.788,4.289,6.719,4.289,11.438v0.143c0,8.078-4.361,13.153-10.723,15.512l12.223,17.872h-12.867l-10.723-16.012h-0.143
		h-8.508v16.012h-11.009V226.688z M271.365,250.995c5.362,0,8.438-2.86,8.438-7.077v-0.143c0-4.719-3.291-7.148-8.65-7.148h-10.938
		v14.368H271.365z"/>
	<polygon display="inline" fill="#FFFFFF" points="-114.333,227.373 -104.108,227.373 -80.49,258.408 -80.49,227.373 
		-69.546,227.373 -69.546,277.777 -78.978,277.777 -103.388,245.734 -103.388,277.777 -114.333,277.777 	"/>
	<polygon display="inline" fill="#FFFFFF" points="-62.134,227.373 -24.114,227.373 -24.114,237.238 -51.116,237.238 
		-51.116,247.463 -27.355,247.463 -27.355,257.328 -51.116,257.328 -51.116,267.913 -23.755,267.913 -23.755,277.777 
		-62.134,277.777 	"/>
	<polygon display="inline" fill="#FFFFFF" points="-1.94,252.143 -18.791,227.373 -5.83,227.373 4.754,243.718 15.414,227.373 
		28.014,227.373 11.164,251.999 28.733,277.777 15.772,277.777 4.467,260.496 -6.91,277.777 -19.51,277.777 	"/>
	<path display="inline" fill="#FFFFFF" d="M71.653,237.598H57.315v40.18H46.226v-40.18H30.889v-10.225h47.409
		C74.089,231.745,71.653,237.598,71.653,237.598"/>
	<path display="inline" fill="#FFFFFF" d="M132.854,248.971h-17.74v7.938h17.789c-1.844,12.133-12.349,21.46-24.991,21.46
		c-13.94,0-25.283-11.342-25.283-25.283s11.342-25.284,25.283-25.284c11.692,0,21.545,7.983,24.421,18.781h8.156
		c-3.032-15.214-16.483-26.718-32.577-26.718c-18.319,0-33.22,14.904-33.22,33.221s14.901,33.221,33.22,33.221
		c18.319,0,33.221-14.904,33.221-33.221c0-1.395-0.097-2.767-0.265-4.117L132.854,248.971L132.854,248.971z"/>
	<path display="inline" fill="#FFFFFF" d="M95.549,304.743c-1.647,1.629-3.035,2.263-4.951,2.263c-3.354,0-5.982-2.816-5.982-6.456
		c0-3.629,2.561-6.365,5.958-6.365c1.853,0,3.303,0.638,4.849,2.132l0.538,0.521l1.897-1.957l-0.569-0.521
		c-1.557-1.425-3.443-2.743-6.69-2.743c-4.882,0-8.707,3.944-8.707,9.024c0,5.01,3.804,8.934,8.662,8.934
		c3.364,0,5.349-1.511,6.847-2.989l0.545-0.538l-1.872-1.818L95.549,304.743z"/>
	<path display="inline" fill="#FFFFFF" d="M124.516,291.776l-8.1,17.523h2.881l2.023-4.452h8.418l2.024,4.452h2.955l-8.102-17.523
		H124.516z M122.51,302.278l3.03-6.649l3.021,6.649H122.51z"/>
	<path display="inline" fill="#FFFFFF" d="M161.246,291.888h-6.523v17.411h2.68v-5.93h3.548c4.162,0,6.958-2.34,6.958-5.864
		C167.908,294.093,165.292,291.888,161.246,291.888 M161.021,300.776h-3.618v-6.295h3.755c1.223,0,4.067,0.302,4.067,3.136
		C165.225,299.537,163.574,300.776,161.021,300.776"/>
	<rect x="188.522" y="291.888" display="inline" fill="#FFFFFF" width="2.683" height="17.411"/>
	<polygon display="inline" fill="#FFFFFF" points="211.774,294.482 217.321,294.482 217.321,309.299 220,309.299 220,294.482 
		225.544,294.482 225.544,291.888 211.774,291.888 	"/>
	<path display="inline" fill="#FFFFFF" d="M250.257,291.776l-8.105,17.523h2.884l2.022-4.452h8.425l2.022,4.452h2.954l-8.107-17.523
		H250.257z M248.245,302.278l3.032-6.649l3.025,6.649H248.245z"/>
	<polygon display="inline" fill="#FFFFFF" points="283.143,306.709 283.143,291.889 280.465,291.889 280.465,309.299 
		292.488,309.299 292.488,306.709 	"/>
	<polygon display="inline" fill="#FFFFFF" points="296.959,309.3 296.454,309.3 296.454,305.64 295.425,305.64 295.425,305.19 
		297.995,305.19 297.995,305.64 296.959,305.64 	"/>
	<polygon display="inline" fill="#FFFFFF" points="298.391,305.19 299.242,305.19 300.065,308.449 300.076,308.449 300.901,305.19 
		301.752,305.19 301.752,309.3 301.244,309.3 301.244,305.708 301.236,305.708 300.325,309.3 299.818,309.3 298.906,305.708 
		298.897,305.708 298.897,309.3 298.391,309.3 	"/>
</g>
<g>
	<path fill="#046799" d="M222.219,55.958c-12.564,0-22.75-10.187-22.75-22.75s10.186-22.75,22.75-22.75
		c10.29,0,18.979,6.834,21.791,16.209h-16.988v12.812h17.064C241.362,48.992,232.607,55.958,222.219,55.958"/>
	<polygon fill="#046799" points="262.829,6.823 300.573,6.823 300.573,16.617 273.768,16.617 273.768,26.767 297.357,26.767 
		297.357,36.561 273.768,36.561 273.768,47.069 300.932,47.069 300.932,56.863 262.829,56.863 	"/>
	<path fill="#046799" d="M327.17,6.465h10.151l21.445,50.397h-11.508l-4.575-11.223h-21.16l-4.574,11.223h-11.227L327.17,6.465z
		 M338.751,35.917l-6.647-16.227l-6.649,16.227H338.751z"/>
	<path fill="#046799" d="M363.538,6.822h22.875c6.363,0,11.295,1.787,14.585,5.076c2.789,2.788,4.289,6.719,4.289,11.438v0.143
		c0,8.078-4.361,13.153-10.723,15.512l12.223,17.872H393.92l-10.723-16.012h-0.143h-8.508v16.012h-11.009V6.822z M385.698,31.128
		c5.362,0,8.438-2.86,8.438-7.077v-0.143c0-4.719-3.291-7.148-8.65-7.148h-10.938v14.368H385.698z"/>
	<polygon fill="#046799" points="0,7.507 10.225,7.507 33.843,38.542 33.843,7.507 44.787,7.507 44.787,57.911 35.355,57.911 
		10.945,25.868 10.945,57.911 0,57.911 	"/>
	<polygon fill="#046799" points="52.199,7.507 90.219,7.507 90.219,17.372 63.217,17.372 63.217,27.597 86.978,27.597 
		86.978,37.462 63.217,37.462 63.217,48.046 90.578,48.046 90.578,57.911 52.199,57.911 	"/>
	<polygon fill="#046799" points="112.393,32.277 95.542,7.507 108.503,7.507 119.087,23.852 129.747,7.507 142.347,7.507 
		125.497,32.133 143.066,57.911 130.105,57.911 118.8,40.63 107.423,57.911 94.823,57.911 	"/>
	<path fill="#046799" d="M185.986,17.731h-14.338v40.18H160.56v-40.18h-15.338V7.506h47.41
		C188.423,11.878,185.986,17.731,185.986,17.731"/>
	<path fill="#046799" d="M247.187,29.105h-17.74v7.938h17.789c-1.844,12.133-12.349,21.46-24.991,21.46
		c-13.94,0-25.282-11.342-25.282-25.283s11.342-25.284,25.282-25.284c11.692,0,21.545,7.983,24.421,18.781h8.156
		C251.789,11.504,238.338,0,222.244,0c-18.319,0-33.22,14.904-33.22,33.221s14.9,33.221,33.22,33.221s33.221-14.904,33.221-33.221
		c0-1.395-0.097-2.767-0.265-4.117L247.187,29.105L247.187,29.105z"/>
	<path fill="#046799" d="M209.882,84.876c-1.647,1.629-3.035,2.263-4.951,2.263c-3.354,0-5.982-2.816-5.982-6.456
		c0-3.629,2.562-6.365,5.958-6.365c1.853,0,3.303,0.638,4.849,2.132l0.538,0.521l1.897-1.957l-0.569-0.521
		c-1.557-1.425-3.443-2.743-6.69-2.743c-4.882,0-8.707,3.944-8.707,9.024c0,5.01,3.805,8.934,8.662,8.934
		c3.364,0,5.349-1.511,6.847-2.989l0.545-0.538l-1.872-1.818L209.882,84.876z"/>
	<path fill="#046799" d="M238.849,71.91l-8.1,17.523h2.881l2.023-4.452h8.418l2.024,4.452h2.955l-8.102-17.523H238.849z
		 M236.843,82.412l3.03-6.649l3.021,6.649H236.843z"/>
	<path fill="#046799" d="M275.579,72.022h-6.523v17.411h2.68v-5.93h3.548c4.162,0,6.958-2.34,6.958-5.864
		C282.241,74.227,279.625,72.022,275.579,72.022 M275.354,80.91h-3.618v-6.295h3.755c1.223,0,4.067,0.302,4.067,3.136
		C279.558,79.67,277.907,80.91,275.354,80.91"/>
	<rect x="302.855" y="72.022" fill="#046799" width="2.683" height="17.411"/>
	<polygon fill="#046799" points="326.107,74.616 331.654,74.616 331.654,89.433 334.333,89.433 334.333,74.616 339.877,74.616 
		339.877,72.022 326.107,72.022 	"/>
	<path fill="#046799" d="M364.59,71.91l-8.105,17.523h2.884l2.022-4.452h8.425l2.022,4.452h2.954l-8.107-17.523H364.59z
		 M362.578,82.412l3.032-6.649l3.025,6.649H362.578z"/>
	<polygon fill="#046799" points="397.476,86.843 397.476,72.023 394.798,72.023 394.798,89.433 406.821,89.433 406.821,86.843 	"/>
	<polygon fill="#046799" points="411.292,89.434 410.787,89.434 410.787,85.774 409.758,85.774 409.758,85.324 412.328,85.324 
		412.328,85.774 411.292,85.774 	"/>
	<polygon fill="#046799" points="412.724,85.324 413.575,85.324 414.398,88.583 414.409,88.583 415.234,85.324 416.085,85.324 
		416.085,89.434 415.577,89.434 415.577,85.841 415.569,85.841 414.658,89.434 414.151,89.434 413.239,85.841 413.23,85.841 
		413.23,89.434 412.724,89.434 	"/>
</g>
</svg>
