<?xml version="1.0" encoding="utf-8"?>
<!-- Generator: Adobe Illustrator 16.0.0, SVG Export Plug-In . SVG Version: 6.00 Build 0)  -->
<!DOCTYPE svg PUBLIC "-//W3C//DTD SVG 1.1//EN" "http://www.w3.org/Graphics/SVG/1.1/DTD/svg11.dtd">
<svg version="1.1" id="Layer_1" xmlns="http://www.w3.org/2000/svg" xmlns:xlink="http://www.w3.org/1999/xlink" x="0px" y="0px"
	 width="23px" height="23px" viewBox="0 0 23 23" enable-background="new 0 0 23 23" xml:space="preserve">
<g>
	<path fill="#FFFFFF" d="M22,19c0,1.649-1.35,3-3,3H4c-1.65,0-3-1.351-3-3V4c0-1.65,1.35-3,3-3h15c1.65,0,3,1.35,3,3V19z"/>
	<path fill="none" stroke="#B7B7B8" stroke-width="2" stroke-miterlimit="10" d="M22,19c0,1.649-1.35,3-3,3H4c-1.65,0-3-1.351-3-3V4
		c0-1.65,1.35-3,3-3h15c1.65,0,3,1.35,3,3V19z"/>
</g>
<polyline fill="#FFFFFF" stroke="#B3B3B3" stroke-width="3" stroke-miterlimit="10" points="4.953,12.118 10.291,16.5 16.952,4.5
	"/>
</svg>
