
<svg version="1.1" id="Layer_1" xmlns="http://www.w3.org/2000/svg" xmlns:xlink="http://www.w3.org/1999/xlink" x="0px" y="0px" style="display:none;"
         width="0" height="0" viewBox="7.985 3.374 33.975 18.179" enable-background="new 7.985 3.374 33.975 18.179"
         xml:space="preserve" preserveAspectRatio="xMidYMid meet">
  <symbol id="icon-back" viewBox="5.917 2.775 13.142 19.462">
    <g> <g> <g>
      <path d="M18.014,21.971c-0.418,0.356-1.102,0.356-1.519-0.002L6.23,13.158c-0.417-0.358-0.417-0.944,0-1.303 l10.265-8.811c0.417-0.358,1.101-0.358,1.519,0l0.732,0.628c0.418,0.358,0.418,0.944,0.001,1.302l-8.017,6.881
      c-0.417,0.358-0.417,0.944,0,1.303l8.017,6.881c0.417,0.357,0.417,0.943-0.001,1.302L18.014,21.971z"></path>
    </g> </g> </g>
  </symbol>

  <symbol id="icon-barcode" viewBox="7.985 3.374 33.975 18.179">
    <g>
      <g>
        <rect x="11.105" y="6.058" width="2.448" height="12.812"></rect>
      </g>
      <g>
        <path d="M39.844,21.553H10.1c-1.167,0-2.115-0.852-2.115-1.898V5.273c0-1.047,0.948-1.899,2.115-1.899h29.74
          c1.168,0,2.116,0.853,2.116,1.899v14.381C41.959,20.701,41.012,21.553,39.844,21.553z M10.1,4.491
          c-0.48,0-0.871,0.351-0.871,0.782v14.381c0,0.431,0.391,0.781,0.871,0.781h29.744c0.48,0,0.873-0.352,0.873-0.781V5.273
          c0-0.431-0.393-0.782-0.873-0.782H10.1z">
        </path>
      </g>
      <g>
        <rect x="16.126" y="6.058" width="1.203" height="12.812"></rect>
      </g>
      <g>
        <rect x="14.773" y="6.058" width="0.529" height="12.812"></rect>
      </g>
      <g>
        <rect x="18.822" y="6.058" width="2.862" height="12.812"></rect>
      </g>
      <g>
        <rect x="22.888" y="6.058" width="1.244" height="12.812"></rect>
      </g>
      <g>
        <rect x="30.748" y="6.058" width="2.863" height="12.812"></rect>
      </g>
      <g>
        <rect x="28.301" y="6.058" width="1.246" height="12.812"></rect>
      </g>
      <g>
        <rect x="25.729" y="6.058" width="1.244" height="12.812"></rect>
      </g>
      <g>
        <rect x="37.346" y="6.058" width="1.243" height="12.812"></rect>
      </g>
      <g>
        <rect x="34.773" y="6.058" width="1.244" height="12.812"></rect>
      </g>
    </g>
  </symbol>

  <symbol id="icon-car" viewBox="3.585 4.578 17.875 15.74">
    <g>
      <path d="M17.867,9.669l-0.223-3.352c-0.041-0.485-0.447-0.477-0.943-0.477H8.349c-0.496,0-0.902-0.009-0.942,0.477 L7.185,9.669H17.867z M20.232,13.104c0-0.686-0.556-1.244-1.24-1.244c-0.688,0-1.244,0.559-1.244,1.244
        c0,0.689,0.557,1.246,1.244,1.246C19.676,14.35,20.232,13.793,20.232,13.104z M16.135,14.814v-2.236
        c0-0.309-0.252-0.561-0.562-0.561l-5.915,0.01c-0.31,0-0.561,0.252-0.561,0.561l-0.001,2.236L16.135,14.814z M6.056,14.35
        c0.687,0,1.244-0.557,1.244-1.246c0-0.686-0.558-1.244-1.244-1.244s-1.242,0.559-1.242,1.244C4.814,13.793,5.37,14.35,6.056,14.35z
        M17.127,4.578c0.953,0,1.736,0.734,1.814,1.672l0.229,3.456l2.289,1.386l-0.004,5.832h-1.021v1.91c0,0.82-0.662,1.484-1.482,1.484
        c-0.818,0-1.482-0.664-1.482-1.484l0.002-1.91H7.576l0.002,1.91c0,0.82-0.664,1.484-1.484,1.484c-0.82,0-1.482-0.664-1.482-1.484
        v-1.91H3.588l-0.003-5.832l2.291-1.386l0.23-3.456C6.184,5.313,6.965,4.578,7.92,4.578H17.127z">
      </path>
    </g>
  </symbol>

  <symbol id="icon-cart" viewBox="2.94 4.666 19.064 15.593">
    <g>
      <path d="M21.096,10.659h-1.91l-3.498-4.293c0.047-0.129,0.07-0.289,0.07-0.434c0-0.69-0.559-1.26-1.248-1.26
        c-0.688,0-1.248,0.553-1.248,1.243c0,0.689,0.562,1.244,1.248,1.244c0.072,0,0.141,0.041,0.207,0.031l2.82,3.469H8.131l2.82-3.473
        c0.066,0.012,0.137-0.006,0.207-0.006c0.688,0,1.246-0.57,1.246-1.26s-0.559-1.254-1.246-1.254c-0.689,0-1.25,0.556-1.25,1.245
        c0,0.143,0.025,0.326,0.07,0.457l-3.496,4.291H3.848c-0.5,0-0.908,0.195-0.908,0.6c0,0.406,0.408,0.602,0.908,0.602h17.248
        c0.5,0,0.908-0.195,0.908-0.602C22.004,10.854,21.596,10.659,21.096,10.659z"></path> <path d="M20.039,13.061H4.902c-0.498,0-0.85,0.383-0.779,0.877l0.828,5.608c0.07,0.494,0.537,0.713,1.037,0.713
        h12.969c0.5,0,0.965-0.229,1.035-0.723l0.826-5.687C20.891,13.355,20.539,13.061,20.039,13.061z M7.604,18.46
        c0,0.328-0.27,0.601-0.6,0.601s-0.6-0.271-0.6-0.601v-3.601c0-0.33,0.27-0.602,0.6-0.602s0.6,0.271,0.6,0.602V18.46z M11.205,18.46
        c0,0.328-0.271,0.601-0.602,0.601c-0.328,0-0.6-0.271-0.6-0.601v-3.601c0-0.33,0.271-0.602,0.6-0.602
        c0.33,0,0.602,0.271,0.602,0.602V18.46z M14.805,18.46c0,0.328-0.27,0.601-0.6,0.601s-0.602-0.271-0.602-0.601v-3.601
        c0-0.33,0.271-0.602,0.602-0.602s0.6,0.271,0.6,0.602V18.46z M18.404,18.46c0,0.328-0.271,0.601-0.6,0.601
        c-0.33,0-0.601-0.271-0.601-0.601v-3.601c0-0.33,0.271-0.602,0.601-0.602c0.329,0,0.6,0.271,0.6,0.602V18.46z">
      </path>
    </g>
  </symbol>

  <symbol id="icon-upload" viewBox="0 0 24 23.1">
    <g>
    	<path id="XMLID_3_" d="M24,21.7c0,0.8-0.6,1.4-1.4,1.4H1.4c-0.8,0-1.4-0.6-1.4-1.4v-4.6c0-0.8,0.6-1.4,1.4-1.4h6.2
    		c0.4,1.1,1.4,1.8,2.6,1.8h3.7c1.2,0,2.2-0.8,2.6-1.8h6.2c0.8,0,1.4,0.6,1.4,1.4V21.7z M18.5,8.3h-3.7v6.5c0,0.5-0.4,0.9-0.9,0.9
    		h-3.7c-0.5,0-0.9-0.4-0.9-0.9V8.3H5.5c-0.4,0-0.7-0.2-0.9-0.6C4.5,7.4,4.6,7,4.9,6.7l6.5-6.5C11.5,0.1,11.8,0,12,0s0.5,0.1,0.6,0.3
    		l6.5,6.5c0.3,0.3,0.3,0.7,0.2,1C19.2,8.1,18.8,8.3,18.5,8.3z M17.5,19.4c-0.5,0-0.9,0.4-0.9,0.9s0.4,0.9,0.9,0.9s0.9-0.4,0.9-0.9
    		S18,19.4,17.5,19.4z M21.2,19.4c-0.5,0-0.9,0.4-0.9,0.9s0.4,0.9,0.9,0.9c0.5,0,0.9-0.4,0.9-0.9S21.7,19.4,21.2,19.4z"/>
    </g>
  </symbol>

  <symbol id="icon-check" viewBox="0.318 0.869 24.302 21.674">
    <path stroke-width="3" stroke-miterlimit="10" d="M23.43,1.783L9.268,20.203L1.43,11.53"></path>
  </symbol>

  <symbol id="icon-chevron" viewBox="-1.477 0.091 18.871 34.915">
    <path stroke-width="2" stroke-miterlimit="10" d="M-0.77,0.798l16.75,16.75l-16.75,16.75"></path>
  </symbol>

  <symbol id="icon-downArrow" viewBox="4.043 8.146 16.906 8.667">
    <polygon points="4.043,8.146 20.949,8.146 12.497,16.812 "></polygon>
  </symbol>

  <symbol id="icon-eye" viewBox="2.029 6.47 20.976 11.985">
    <path d="M12.517,6.47c-5.861,0-10.488,5.992-10.488,5.992s4.626,5.993,10.488,5.993
      c4.483,0,10.488-5.993,10.488-5.993S17,6.47,12.517,6.47z M12.517,16.195c-2.058,0-3.734-1.674-3.734-3.734
      c0-2.058,1.677-3.735,3.734-3.735s3.734,1.676,3.734,3.735C16.251,14.521,14.574,16.195,12.517,16.195z M12.517,10.282
      c-1.203,0-2.181,0.976-2.181,2.18s0.977,2.181,2.181,2.181c1.204,0,2.181-0.977,2.181-2.182
      C14.697,11.259,13.721,10.282,12.517,10.282z">
    </path>
  </symbol>

  <symbol id="icon-failure" viewBox="0 0 28.803 28.801">
    <path fill="#C43C27" d="M26.872,7.176c-1.287-2.211-3.037-3.96-5.246-5.246C19.413,0.643,17.006,0,14.403,0
      c-2.606,0-5.014,0.643-7.224,1.93C4.966,3.216,3.22,4.965,1.933,7.176C0.644,9.388,0,11.794,0,14.398
      c0,2.605,0.644,5.014,1.933,7.225c1.287,2.213,3.033,3.961,5.246,5.248c2.21,1.285,4.618,1.93,7.224,1.93
      c2.604,0,5.01-0.645,7.223-1.93c2.209-1.287,3.959-3.035,5.246-5.248c1.287-2.211,1.932-4.619,1.932-7.225
      C28.803,11.794,28.159,9.388,26.872,7.176z"/>
    <path fill="#FFFFFF" d="M21.645,20c0,1.236-1.102,1.627-1.613,1.627c-0.881,0-0.924-0.162-5.625-4.899
      c-4.663,4.704-4.733,4.888-5.631,4.888c-1.236,0-1.629-1.101-1.629-1.613c0-0.881,0.163-0.924,4.909-5.633
  c-4.414-4.4-4.897-4.695-4.897-5.598c0-1.189,1.017-1.655,1.648-1.655c0.906,0,1.054,0.356,5.598,4.907
  C18.807,7.609,19.1,7.127,20,7.127c1.191,0,1.656,1.018,1.656,1.648c0,0.907-0.357,1.055-4.898,5.591
  C21.461,19.031,21.645,19.1,21.645,20z"/>
  </symbol>

  <symbol id="icon-filter" viewBox="5.327 4 13.483 16">
    <g>
      <path d="M14.152,13.534c-1.146,1.674-3.021,1.674-4.168,0C8.837,11.86,6.961,8.919,5.816,7.245
        C4.67,5.571,5.607,4,7.9,4c2.292,0,6.043,0,8.336,0s3.229,1.571,2.084,3.245C17.174,8.919,15.298,11.86,14.152,13.534z">
      </path>
      <g>
        <path d="M14,11c0-0.552-0.447-1-1-1h-2c-0.552,0-1,0.448-1,1v8c0,0.553,0.448,1,1,1h2c0.553,0,1-0.447,1-1V11z"></path>
      </g>
    </g>
  </symbol>

  <symbol id="icon-info" viewBox="0 0 27.328 27.328">
    <g>
      <path fill="#3499CD" d="M3,27.328c-1.65,0-3-1.35-3-3V3c0-1.65,1.35-3,3-3h21.328c1.65,0,3,1.35,3,3v21.328c0,1.65-1.35,3-3,3H3z"
        />
      <path fill="#FFFFFF" d="M10.086,22.581v-2.829h1.832v-7.395h-1.832V9.504h5.396v10.271h1.762v2.806H10.086z M11.68,4.747h3.731
        v3.14H11.68V4.747z"/>
    </g>
  </symbol>

  <symbol id="icon-menu" viewBox="1.074 3.944 22.9 17.179">
    <g> <g>
      <path d="M22.255,10.815H2.791c-0.947,0-1.717,0.769-1.717,1.718s0.77,1.719,1.717,1.719h19.464
        c0.949,0,1.72-0.77,1.72-1.719S23.204,10.815,22.255,10.815z M22.255,17.688H2.791c-0.947,0-1.717,0.769-1.717,1.717
        c0,0.949,0.77,1.719,1.717,1.719h19.464c0.949,0,1.72-0.77,1.72-1.719S23.204,17.688,22.255,17.688z M2.791,7.381h19.466
        c0.947,0,1.718-0.77,1.718-1.717c0-0.948-0.771-1.72-1.718-1.72H2.791c-0.947,0-1.717,0.771-1.717,1.72
        C1.074,6.611,1.843,7.381,2.791,7.381z">
      </path>
    </g> </g>
  </symbol>

  <symbol id="icon-minus" viewBox="6.865 11.049 11.264 2.812">
    <rect x="6.865" y="11.049" width="11.264" height="2.812"></rect>
  </symbol>

  <symbol id="icon-alert" viewBox="0 0 28.799 28.801">
    <g>
      <path fill="#C43C27" d="M8.795,1.139C10.565,0.379,12.435,0,14.396,0C16.362,0,18.229,0.379,20,1.139
    c1.773,0.758,3.303,1.775,4.594,3.07c1.291,1.287,2.314,2.816,3.07,4.592c0.756,1.77,1.135,3.637,1.135,5.598
    c0,1.968-0.379,3.83-1.135,5.604s-1.779,3.302-3.07,4.594c-1.291,1.289-2.82,2.312-4.594,3.068
    c-1.771,0.758-3.639,1.137-5.604,1.137c-1.962,0-3.831-0.379-5.602-1.137c-1.771-0.756-3.303-1.779-4.592-3.068
    c-1.291-1.292-2.312-2.82-3.069-4.594C0.375,18.229,0,16.366,0,14.398c0-1.961,0.375-3.828,1.134-5.598
    c0.757-1.775,1.778-3.305,3.069-4.592C5.492,2.914,7.023,1.896,8.795,1.139z"/>
      <path fill="#FFFFFF" d="M16.545,15.674l1.447-7.539c0.066-0.33,0-0.619-0.203-0.857c-0.197-0.242-0.471-0.364-0.82-0.364h-5.167
    c-0.329,0-0.598,0.122-0.796,0.364c-0.202,0.238-0.269,0.527-0.202,0.857l1.448,7.539c0.066,0.33,0.245,0.621,0.535,0.863
    c0.291,0.236,0.604,0.361,0.938,0.361h1.346c0.334,0,0.648-0.125,0.938-0.361C16.299,16.295,16.477,16.004,16.545,15.674z"/>
      <rect x="11.903" y="19.391" fill="#FFFFFF" width="4.992" height="4.172"/>
    </g>
  </symbol>

  <symbol id="icon-page" viewBox="4.659 2.888 15.6 19.2">
    <g>
      <path d="M14.757,2.888H4.659v19.2h15.6V8.391L14.757,2.888z M17.857,19.688H7.06V5.289h6.704l0.495,0.497v3.103
        h3.104l0.496,0.497v10.302H17.857z">
      </path>
      <rect x="8.259" y="12.489" width="8.4" height="1.198"></rect>
      <rect x="8.259" y="8.888" width="4.802" height="1.2"></rect>
      <rect x="8.259" y="16.088" width="8.4" height="1.201"></rect>
    </g>
  </symbol>

  <symbol id="icon-plus" viewBox="6.978 6.709 11.263 11.264">
    <polygon points="18.241,10.934 14.02,10.934 14.02,6.709 11.202,6.709 11.202,10.934 6.978,10.934 6.978,13.75
      11.202,13.75 11.202,17.973 14.02,17.973 14.02,13.75 18.241,13.75 ">
    </polygon>
  </symbol>

  <symbol id="icon-search" viewBox="4.771 4.886 15.454 15.104">
    <path d="M19.785,17.428l-2.854-2.854c0.532-0.941,0.84-2.027,0.84-3.186c0-3.585-2.916-6.501-6.5-6.501
      c-3.584,0-6.5,2.916-6.5,6.501c0,3.583,2.916,6.499,6.5,6.499c1.342,0,2.588-0.407,3.624-1.106l2.77,2.771
      c0.293,0.293,0.678,0.439,1.061,0.439c0.385,0,0.769-0.146,1.062-0.439C20.371,18.963,20.371,18.014,19.785,17.428z M6.771,11.387
      c0-2.482,2.02-4.501,4.5-4.501c2.482,0,4.5,2.019,4.5,4.501c0,2.48-2.019,4.499-4.5,4.499C8.791,15.886,6.771,13.867,6.771,11.387z">
    </path>
  </symbol>

  <symbol id="icon-success" viewBox="0 0 28.799 28.799">
    <path fill="#1CAF5D" d="M26.872,7.174c-1.287-2.211-3.037-3.957-5.246-5.244C19.413,0.642,17.006,0,14.399,0
      c-2.605,0-5.011,0.642-7.221,1.93C4.966,3.217,3.216,4.963,1.931,7.174C0.644,9.387,0,11.793,0,14.398s0.644,5.014,1.931,7.223
      c1.285,2.213,3.035,3.961,5.248,5.248c2.21,1.287,4.615,1.93,7.221,1.93c2.607,0,5.013-0.643,7.226-1.93
      c2.209-1.287,3.959-3.035,5.246-5.248c1.285-2.209,1.928-4.617,1.928-7.223S28.157,9.387,26.872,7.174z"/>
    <path fill="#FFFFFF" d="M22.122,11.207l-8.544,8.729c-0.769,0.786-1.938,0.902-2.596,0.258c-0.659-0.645-1.194-1.174-1.192-1.177
      c0.002-0.002-1.649-1.622-2.436-2.392l-0.64-0.626c-0.787-0.77-0.901-1.938-0.258-2.597c0.645-0.657,1.815-0.567,2.601,0.203
      l2.879,2.469l7.792-7.212c0.77-0.785,1.939-0.901,2.596-0.257C22.981,9.25,22.891,10.421,22.122,11.207z"/>
  </symbol>

  <symbol id="icon-title" viewBox="4.67 2.949 15.711 19.066">
    <g>
      <path d="M6.082,4.21h6.992v2.773c0,0.036,0.016,0.072,0.047,0.099c0.027,0.026,0.07,0.04,0.111,0.04h3.061v1.17
      c0.213-0.05,0.434-0.08,0.66-0.08c0.264,0,0.516,0.035,0.754,0.1v-1.5c0-0.167-0.076-0.327-0.209-0.446l-3.629-3.232
      c-0.133-0.117-0.312-0.185-0.498-0.185H5.377c-0.186,0-0.367,0.067-0.5,0.185C4.746,3.251,4.67,3.414,4.67,3.58v14.675
      c0,0.166,0.076,0.326,0.207,0.445c0.133,0.116,0.314,0.184,0.5,0.184h8.043v-1.26H6.082V4.21z"></path>
      <path d="M16.967,15.954c1.885,0,3.414-1.529,3.414-3.416c0-1.885-1.529-3.414-3.414-3.414
      c-1.887,0-3.416,1.529-3.416,3.414C13.551,14.425,15.08,15.954,16.967,15.954z"></path>
      <path d="M14.48,16.021v5.994l2.471-1.8l2.502,1.8v-5.994c-0.623,0.664-1.506,1.082-2.486,1.082
      C15.984,17.104,15.102,16.686,14.48,16.021z"></path>
      <g>
        <line x1="7.861" y1="9.124" x2="12.795" y2="9.124"></line>
        <rect x="7.861" y="8.624" width="4.934" height="1"></rect>
      </g>
      <g>
        <line x1="7.861" y1="11.874" x2="12.795" y2="11.874"></line>
        <rect x="7.861" y="11.374" width="4.934" height="1"></rect>
      </g>
      <g>
        <line x1="7.861" y1="14.622" x2="12.795" y2="14.622"></line>
        <rect x="7.861" y="14.122" width="4.934" height="1"></rect>
      </g>
    </g>
  </symbol>

  <symbol id="icon-upArrow" viewBox="4.043 8.205 16.906 8.666">
    <polygon points="20.949,16.871 4.043,16.871 12.496,8.205 "></polygon>
  </symbol>

  <symbol id="icon-warning" viewBox="0 0 32.061 32.059">
    <path fill="#F49D1E" d="M30.662,12.639L19.424,1.399c-1.865-1.865-4.921-1.865-6.788,0L1.399,12.639
  c-1.865,1.865-1.865,4.92,0,6.787l11.237,11.232c1.866,1.867,4.922,1.867,6.788,0l11.238-11.232
  C32.527,17.559,32.527,14.504,30.662,12.639z"/>
    <rect x="13.535" y="20.183" fill="#FFFFFF" width="4.993" height="4.172"/>
    <path fill="#FFFFFF" d="M18.176,16.466c-0.066,0.329-0.244,0.62-0.535,0.862c-0.289,0.237-0.605,0.361-0.938,0.361h-1.347
  c-0.334,0-0.646-0.124-0.938-0.361c-0.29-0.242-0.469-0.533-0.535-0.862l-1.448-7.539c-0.066-0.33,0-0.619,0.202-0.858
  c0.198-0.242,0.467-0.363,0.797-0.363h5.167c0.348,0,0.621,0.121,0.82,0.363c0.203,0.239,0.27,0.528,0.203,0.858L18.176,16.466z"/>
  </symbol>

  <symbol id="icon-home" viewBox="0 0 24.959 22.88">
    <path d="M21.653,19.797V12.1H23l1.959-2.567L12.479,0L0,9.526L1.96,12.1h1.347v7.697c-1.7,0-3.083,1.377-3.083,3.083
      h3.083h18.346h3.088C24.741,21.174,23.358,19.797,21.653,19.797z M19.858,21.085h-4.143v-8.443H9.246v8.443h-4.14V9.926L12.48,4.3
      l7.379,5.626v11.159H19.858z"/>
  </symbol>

  <symbol id="icon-payments" viewBox="0 0 31.135 20.757">
    <path d="M22.889,18.869v-4.041h-1.48c0.471-1.482,0.744-2.846,0.744-4.289c0-1.288-0.211-2.383-0.588-3.868h1.324
      V2.312l8.246,8.279L22.889,18.869z M20.676,10.378c0,5.723-4.637,10.379-10.34,10.379C4.638,20.757,0,16.101,0,10.378
      C0,4.656,4.638,0,10.336,0C16.039,0,20.676,4.656,20.676,10.378z M13.817,12.062c0-1.339-0.66-2.179-2.51-2.797
      c-1.231-0.424-1.731-0.703-1.731-1.07c0-0.326,0.26-0.637,1.123-0.637c1.1,0,1.807,0.34,2.203,0.505l0.448-1.964
      c-0.528-0.231-0.798-0.438-2.274-0.467V4.448H9.6V5.75C8.123,6.085,6.963,7.146,6.963,8.486c0,1.485,1.085,2.236,2.684,2.75
      c1.086,0.34,1.529,0.623,1.529,1.076c0,0.473-0.519,0.68-1.265,0.68c-1.015,0-1.9-0.326-2.561-0.65l-0.426,2.031
      c0.558,0.293,1.198,0.576,2.675,0.633v1.303h1.477v-1.434C12.553,14.552,13.817,13.431,13.817,12.062z"/>
  </symbol>

  <symbol id="icon-floorCar" viewBox="0 0 28.081 26">
    <path d="M17.446,20.732h3.9L13.978,26l-7.373-5.268h3.905v-1.971h6.936V20.732z M22.879,21.373
      c0,0.863,0.697,1.564,1.561,1.564S26,22.234,26,21.373v-2.605h-3.121V21.373z M2.081,21.373c0,0.863,0.702,1.564,1.56,1.564
      c0.863,0,1.56-0.703,1.56-1.564v-2.605H2.081V21.373z M28.081,10.425v5.211c0,1.154-0.93,2.084-2.08,2.084H2.081
      C0.932,17.72,0,16.791,0,15.636v-5.211c0-1.153,0.932-2.084,2.081-2.084h1.04c0,0,1.538-4.696,1.996-6.257
      C5.569,0.519,6.043,0,7.197,0h13.686c1.154,0,1.498,0.322,2.086,2.084c0.582,1.759,1.99,6.257,1.99,6.257H26
      C27.151,8.341,28.081,9.271,28.081,10.425z M4.16,8.341h19.76c0,0-1.736-5.538-1.996-6.256c-0.262-0.718-0.463-1.04-1.041-1.04
      h-6.323v1.04h0.52c0.292,0,0.52,0.234,0.52,0.52c0,0.286-0.228,0.521-0.52,0.521H13c-0.285,0-0.52-0.234-0.52-0.521
      c0-0.285,0.234-0.52,0.52-0.52h0.521v-1.04H7.197c-0.577,0-0.779,0.13-1.04,1.04C5.897,2.994,4.16,8.341,4.16,8.341z M6.304,12.511
      c0-1.154-0.927-2.085-2.081-2.085c-1.144,0-2.074,0.931-2.074,2.085c0,1.149,0.931,2.086,2.074,2.086
      C5.377,14.597,6.304,13.66,6.304,12.511z M20.799,14.597H7.281v1.039h13.518V14.597z M20.799,12.511H7.281v1.042h13.518V12.511z
       M20.799,10.425H7.281v1.046h13.518V10.425z M25.932,12.573c0-1.149-0.93-2.086-2.074-2.086c-1.154,0-2.08,0.937-2.08,2.086
      c0,1.155,0.926,2.084,2.08,2.084C25.002,14.658,25.932,13.728,25.932,12.573z"/>
  </symbol>

  <symbol id="icon-floorplan" viewBox="0 0 28.6 29.119">
    <path d="M28.272,26.412l-8.133-8.071c1.586-1.935,2.543-4.399,2.543-7.082C22.683,5.039,17.607,0,11.341,0
      C5.075,0,0,5.038,0,11.257c0,6.215,5.075,11.254,11.342,11.254c2.324,0,4.482-0.702,6.286-1.898l8.242,8.18
      c0.437,0.437,1.159,0.437,1.596,0l0.807-0.795C28.709,27.56,28.709,26.847,28.272,26.412z M17.498,17.008
      c-0.058,0.042-0.114,0.084-0.162,0.137l-0.463,0.452c-1.487,1.279-3.432,2.054-5.558,2.054c-4.696,0-8.508-3.78-8.508-8.439
      c0-4.665,3.812-8.445,8.508-8.445c4.7,0,8.506,3.78,8.506,8.445C19.822,13.457,18.938,15.501,17.498,17.008z M15.079,14.56h1.561
      v1.029c0,0.354-0.562,0.64-0.915,0.64c-0.358,0-0.646-0.285-0.646-0.64V14.56z M6.76,14.56H7.8v1.029c0,0.354-0.042,0.64-0.396,0.64
      c-0.358,0-0.645-0.285-0.645-0.64V14.56z M16.302,10.399h-0.255c0,0-0.582-1.934-0.821-2.651c-0.239-0.719-0.385-0.988-0.857-0.988
      H8.715c-0.474,0-0.671,0.349-0.857,0.988c-0.188,0.639-0.822,2.651-0.822,2.651H6.577c-0.473,0-0.857,0.38-0.857,0.853v1.992
      c0,0.474,0.385,0.796,0.857,0.796h9.725c0.473,0,0.857-0.322,0.857-0.796v-1.992C17.16,10.779,16.774,10.399,16.302,10.399z
       M8.283,7.842C8.393,7.473,8.59,7.28,8.829,7.28h2.61v0.426h-0.213c-0.119,0-0.332,0.287-0.332,0.401
      c0,0.119,0.099,0.213,0.218,0.213h0.858c0.119,0,0.213-0.094,0.213-0.213c0-0.114,0.109-0.401-0.01-0.401H11.96V7.28h2.408
      c0.233,0,0.321,0.136,0.426,0.426v0.136C14.903,8.138,15.62,10.4,15.62,10.4H7.462C7.462,10.399,8.18,8.216,8.283,7.842z
       M7.487,12.817c-0.474,0-0.858-0.38-0.858-0.853c0-0.468,0.385-0.853,0.858-0.853c0.479,0,0.857,0.385,0.857,0.853
      C8.345,12.438,7.966,12.817,7.487,12.817z M14.561,13.52H9.068L8.84,13.702V13h5.721V13.52z M14.561,12.479H9.068L8.84,12.475
      v-0.516h5.721V12.479z M14.561,11.44H9.068L8.84,11.247V10.92h5.721V11.44z M15.595,12.844c-0.479,0-0.863-0.379-0.863-0.853
      c0-0.468,0.385-0.853,0.863-0.853c0.474,0,0.858,0.385,0.858,0.853C16.453,12.465,16.068,12.844,15.595,12.844z"/>
  </symbol>

  <symbol id="icon-analytics" viewBox="0 0 27.561 22.88">
    <path d="M27.561,19.267v3.613H3.593H0v-3.613V0h3.593v13.566l9.599-9.641l4.316,4.342l3.953-3.973l-1.254-1.253
    l6.927-1.866l-1.856,6.962L24.029,6.88l-6.515,6.547l-4.327-4.342l-9.594,9.641v0.541H27.561z"/>
  </symbol>

  <symbol id="icon-bookAmount" viewBox="0 0 28.06 22.557">
    <path d="M17.198,21.655l0.056,0.902h-6.393v-0.902H0V3.609h0.908v17.143h10.861v0.902h4.522v-0.902h10.86V3.609
      h0.908v18.045H17.198z M26.249,19.736V2.029c0,0-2.432-2.029-5.881-2.029s-5.887,1.805-5.887,1.805v17.931
      c0,0,2.438-1.745,5.887-1.745S26.249,19.736,26.249,19.736z M13.579,19.736V2.029c0,0-2.437-2.029-5.887-2.029
      C4.243,0,1.811,1.805,1.811,1.805v17.931c0,0,2.432-1.745,5.881-1.745C11.142,17.991,13.579,19.736,13.579,19.736z"/>
  </symbol>

  <symbol id="icon-businessSummary" viewBox="0 0 18.156 20.355">
      <path d="M0,15.245h1.298v1.271H0V15.245z M1.298,19.058H0v1.271h1.298V19.058z M0,12.709h1.298v-1.271H0V12.709z
        M0,8.896h1.298V7.625H0V8.896z M0,5.084h1.298V3.812H0V5.084z M0,1.271h1.298V0H0V1.271z M3.889,16.543h14.267v-1.266H3.889V16.543
        z M18.156,19.086H3.889v1.27h14.267V19.086z M3.889,12.73h14.267V11.46H3.889V12.73z M3.889,8.918h14.267V7.652H3.889V8.918z
        M3.889,5.11h14.267V3.84H3.889V5.11z M3.889,1.298h14.267V0.027H3.889V1.298z"/>
  </symbol>

  <symbol id="icon-topMovers" viewBox="0 0 25.308 23.108">
    <path d="M13.26,0h-1.21L0,11.025v1.14h3.614v10.943h18.079V12.165h3.614v-1.223L13.26,0z M10.537,21.49h-2.62v-7.093
      H7.89l-1.937,0.865l-0.435-2.031l2.834-1.227h2.184L10.537,21.49L10.537,21.49z M15.846,21.661h-0.017
      c-2.816,0-3.944-2.316-3.944-4.913c0-2.581,1.128-4.913,3.961-4.913s3.962,2.332,3.962,4.913
      C19.808,19.345,18.679,21.661,15.846,21.661z M17.089,16.748c0,2.013-0.495,2.931-1.232,2.931h-0.012
      c-0.753,0-1.243-0.918-1.243-2.931c0-2.015,0.49-2.916,1.243-2.916C16.594,13.832,17.089,14.733,17.089,16.748z"/>
  </symbol>

  <symbol id="icon-topAuctions" viewBox="0 0 29.71 25.857" >
    <path d="M24.208,19.856h3.302v2.756c0,0.913-0.738,1.655-1.651,1.655s-1.65-0.742-1.65-1.655V19.856z M2.201,22.612
      c0,0.913,0.744,1.655,1.651,1.655c0.913,0,1.65-0.742,1.65-1.655v-2.756H2.201V22.612z M29.71,11.03v5.513
      c0,1.222-0.985,2.206-2.2,2.206h-8.809l-3.032-2.206h6.338v-1.101H7.703v1.101h6.338l-3.032,2.206H2.201
      C0.985,18.749,0,17.765,0,16.543V11.03C0,9.81,0.985,8.825,2.201,8.825h1.101c0,0,1.628-4.968,2.113-6.618
      C5.893,0.549,6.394,0,7.615,0h14.48c1.222,0,1.585,0.341,2.207,2.207c0.616,1.857,2.107,6.618,2.107,6.618h1.101
      C28.725,8.825,29.71,9.81,29.71,11.03z M6.668,13.237c0-1.221-0.979-2.207-2.201-2.207c-1.21,0-2.195,0.986-2.195,2.207
      c0,1.216,0.985,2.205,2.195,2.205C5.688,15.442,6.668,14.453,6.668,13.237z M25.309,8.825c0,0-1.838-5.86-2.113-6.618
      c-0.275-0.762-0.49-1.102-1.101-1.102h-6.689v1.102h0.55c0.309,0,0.55,0.246,0.55,0.549s-0.241,0.551-0.55,0.551h-2.201
      c-0.303,0-0.551-0.248-0.551-0.551s0.248-0.549,0.551-0.549h0.55V1.105h-6.69c-0.61,0-0.826,0.139-1.1,1.102
      C6.239,3.169,4.402,8.825,4.402,8.825H25.309z M22.008,13.237H7.703v1.1h14.305V13.237z M22.008,11.03H7.703v1.106h14.305V11.03z
       M27.438,13.304c0-1.217-0.984-2.207-2.195-2.207c-1.222,0-2.201,0.99-2.201,2.207c0,1.22,0.979,2.205,2.201,2.205
      C26.453,15.509,27.438,14.523,27.438,13.304z M7.152,23.757h4.077v2.101h7.251v-2.101h4.077l-7.702-5.602L7.152,23.757z"/>
  </symbol>

  <symbol id="icon-staleUnits" viewBox="0 0 17.056 24.759">
    <path d="M16.605,1.832c0.252,0,0.45-0.203,0.45-0.457V0H0v1.375c0,0.254,0.198,0.457,0.451,0.457h1.464
      c0.033,7.906,4.01,8.071,4.01,10.553c0,2.465-3.901,4.435-3.977,10.541H0.451C0.198,22.926,0,23.129,0,23.383v1.376h17.056v-1.376
      c0-0.254-0.198-0.457-0.45-0.457h-1.41c-0.07-6.106-3.977-8.076-3.977-10.541c0-2.481,3.977-2.646,4.017-10.553H16.605z
       M9.975,12.385c0,2.394,3.906,4.413,3.979,10.541h-0.804c-0.154-0.544-0.683-1.199-1.596-1.684l-1.183-0.621
      c-0.748-0.396-1.194-0.661-1.337-0.798c-0.144-0.138-0.313-0.446-0.507-0.925c-0.192,0.479-0.362,0.787-0.511,0.925
      c-0.149,0.137-0.594,0.401-1.348,0.798L5.48,21.242c-0.913,0.484-1.447,1.14-1.606,1.684H3.191
      c0.077-6.128,3.983-8.147,3.983-10.541c0-2.492-3.977-2.646-4.016-10.553h10.828C13.953,9.738,9.975,9.893,9.975,12.385z
       M4.738,6.801c1.332,0.863,2.635,1.298,3.901,1.298c1.271,0,2.574-0.435,3.917-1.298c-0.226,0.368-0.722,0.973-1.479,1.82
      L9.959,9.877c-0.506,0.559-0.809,0.945-0.918,1.166c-0.104,0.213-0.198,0.627-0.27,1.23C8.755,12.455,8.716,12.73,8.65,13.1
      c-0.061-0.369-0.105-0.645-0.122-0.826c-0.071-0.604-0.165-1.018-0.27-1.23c-0.109-0.221-0.418-0.607-0.918-1.166L6.212,8.621
      C5.447,7.773,4.951,7.169,4.738,6.801z"/>
  </symbol>

  <symbol id="icon-averageTurn" viewBox="0 0 23.89 23.854">
    <path d="M9.434,13.924h13.427c-0.557,5.755-5.447,9.931-11.4,9.931C5.129,23.854,0,18.903,0,12.594
      C0,6.823,4.003,1.813,9.434,0.993V13.924z M12.892,0c-0.652,0-1.288,0.061-1.908,0.168v12.34h12.801
      c0.067-0.493,0.105-0.996,0.105-1.508C23.89,4.924,18.966,0,12.892,0z"/>
  </symbol>

  <symbol id="icon-bosPhoto" viewBox="0 0 26.52 21.318">
    <path d="M24.694,3.551h-5.434c0,0-0.058-0.104-0.058-1.33C19.203,0.992,18.185,0,16.915,0H9.604
      C8.341,0,7.316,0.992,7.316,2.221c0,1.227,0.058,1.33,0.058,1.33H1.83C0.816,3.551,0,4.348,0,5.33v14.211
      c0,0.984,0.816,1.777,1.83,1.777h22.864c1.009,0,1.825-0.793,1.825-1.777V5.33C26.52,4.348,25.703,3.551,24.694,3.551z
      M13.301,17.742c-3.031,0-5.485-2.387-5.485-5.33s2.454-5.33,5.485-5.33c3.032,0,5.487,2.387,5.487,5.33
      S16.333,17.742,13.301,17.742z"/>
  </symbol>

  <symbol id="icon-email" viewBox="0 0 25.99 18.714">
    <path d="M0,18.703V0.941l8.629,7.371L0,18.703z M9.226,8.904l-8.229,9.81h24.026l-8.229-9.908l-3.784,3.233
      L9.226,8.904z M13.01,10.968L25.922,0H0.099L13.01,10.968z M25.99,18.703V0.941l-8.629,7.371L25.99,18.703z"/>
  </symbol>

  <symbol id="icon-phone" viewBox="0 0 21.054 28.612">
    <path d="M9.246,7.77v0.005L7.114,9.017L2.547,1.383l2.132-1.248c0.459-0.27,1.053-0.123,1.328,0.341l3.585,5.972
      v0.004C9.851,6.889,9.737,7.482,9.246,7.77z M20.918,25.374v-0.005l-3.482-5.804c-0.275-0.459-0.868-0.604-1.333-0.341l-2.133,1.248
      l4.47,7.472l2.133-1.242h0.006C21.064,26.416,21.178,25.817,20.918,25.374z M17.857,28.268l-4.459-7.449
      c-1.053,0.615-1.938-0.395-3.58-2.592c-0.027-0.016-3.196-5.291-3.207-5.361c-0.654-1.414-1.182-2.861-0.081-3.51L1.958,1.729
      C0.775,2.604-2.577,7.364,3.697,18.146C10.305,29.51,16.594,29.04,17.857,28.268z"/>
  </symbol>

  <symbol id="icon-headset" viewBox="0 0 28.073 25.914">
    <path d="M12.746,25.736c-0.902-0.136-1.468-0.697-1.479-1.593c-0.01-0.886,0.491-1.538,1.425-1.614
      c1.085-0.087,2.187-0.049,3.282-0.006c0.297,0.012,0.638,0.189,0.875,0.384c1.997,1.631,5.528,0.454,6.041-2.046
      c0.055-0.26-0.07-0.572-0.173-0.838c-0.242-0.637-0.724-1.246-0.745-1.878c-0.092-2.462-0.06-4.929-0.021-7.392
      c0.011-0.469,0.098-1.105,0.41-1.371c0.675-0.566,0.557-1.145,0.373-1.813c-1.08-3.844-4.578-6.457-8.66-6.462
      C9.982,1.102,6.478,3.698,5.393,7.543c-0.184,0.646-0.395,1.252,0.34,1.813c0.297,0.227,0.421,0.825,0.427,1.253
      c0.038,2.607,0.011,5.215,0.027,7.822c0,0.799-0.297,1.426-1.063,1.701c-0.799,0.291-1.501,0.075-2.03-0.621
      c-0.146-0.189-0.34-0.367-0.556-0.486c-2.888-1.609-3.439-6.197-0.988-8.411c0.578-0.519,1.279-0.913,1.83-1.452
      C3.73,8.816,4.043,8.33,4.146,7.861C5.112,3.299,9.226,0.006,14.042,0c4.81-0.006,9,3.283,9.88,7.845
      c0.205,1.063,0.907,1.694,1.722,2.144c1.837,1.01,2.43,2.623,2.43,4.486c0,1.895-0.55,3.547-2.456,4.566
      c-0.626,0.34-1.269,1.031-1.469,1.69c-0.82,2.727-2.268,3.903-5.215,3.941c-0.82,0.011-1.539,0.005-2.262,0.696
      c-0.497,0.475-1.556,0.384-2.36,0.545l-0.032-0.161C13.766,25.753,13.249,25.812,12.746,25.736z"/>
  </symbol>

  <symbol id="icon-logout" viewBox="0 0 24.293 27.533">
    <path d="M12.146,27.533C5.439,27.533,0,22.242,0,15.717c0-5.023,3.229-9.305,7.773-11.016v4.207
    c-2.332,1.42-3.889,3.935-3.889,6.809c0,4.438,3.701,8.035,8.262,8.035c4.562,0,8.259-3.598,8.259-8.035
    c0-2.455-1.134-4.646-2.915-6.121V5.117c4.025,1.926,6.803,5.941,6.803,10.6C24.293,22.243,18.856,27.533,12.146,27.533
    L12.146,27.533z M12.633,14.299c-1.075,0-1.945-0.847-1.945-1.892V1.891c0-1.043,0.87-1.891,1.945-1.891
    c1.071,0,1.942,0.848,1.942,1.891v10.517C14.575,13.452,13.705,14.299,12.633,14.299L12.633,14.299z"/>
  </symbol>

  <symbol id="icon-sortArrows" viewBox="0 0 9.082 13.193">
    <g>
      <polyline fill="none" stroke="#FFFFFF" stroke-miterlimit="10" points="0.354,8.299 4.541,12.486 8.728,8.299 "/>
      <polyline fill="none" stroke="#919495" stroke-miterlimit="10" points="8.728,4.895 4.541,0.707 0.354,4.895 "/>
    </g>
  </symbol>

  <symbol id="icon-cancel" viewBox="0 0 19.916 19.916">
    <g>
      <circle fill-rule="evenodd" clip-rule="evenodd" cx="9.958" cy="9.958" r="9.958"/>
      <g>
        <line fill-rule="evenodd" clip-rule="evenodd" fill="none" stroke="#FFFFFF" stroke-width="2" stroke-linecap="round" stroke-linejoin="round" stroke-miterlimit="10" x1="5.458" y1="5.458" x2="14.266" y2="14.266"/>
        <line fill-rule="evenodd" clip-rule="evenodd" fill="none" stroke="#FFFFFF" stroke-width="2" stroke-linecap="round" stroke-linejoin="round" stroke-miterlimit="10" x1="14.459" y1="5.651" x2="5.651" y2="14.459"/>
      </g>
    </g>
  </symbol>

  <symbol id="icon-document" viewBox="0 0 21.842 26.699">
    <g>
      <path d="M21.842,26.699V6.473c0-0.28-0.127-0.548-0.35-0.746l-6.08-5.417C15.191,0.111,14.889,0,14.579,0H1.185
        C0.875,0,0.57,0.111,0.347,0.31C0.127,0.504,0,0.778,0,1.057v24.589c0,0.277,0.127,0.548,0.347,0.744
        c0.223,0.196,0.528,0.31,0.838,0.31h18.288v-2.11H2.366V2.111h11.715v4.647c0,0.062,0.025,0.121,0.077,0.167
        c0.047,0.044,0.119,0.067,0.188,0.067h5.127v19.706H21.842z"/>
      <g>
        <line x1="5.347" y1="10.347" x2="13.614" y2="10.347"/>
        <rect x="5.347" y="9.508" width="8.267" height="1.676"/>
      </g>
      <g>
        <line x1="5.347" y1="14.954" x2="13.614" y2="14.954"/>
        <rect x="5.347" y="14.114" width="8.267" height="1.676"/>
      </g>
      <g>
        <line x1="5.347" y1="19.558" x2="13.614" y2="19.558"/>
        <rect x="5.347" y="18.721" width="8.267" height="1.675"/>
      </g>
    </g>
  </symbol>

  <symbol id="icon-triangle" viewBox="0 0 4.68 9.129">
    <polygon points="0,9.129 0,0 4.68,4.564 "/>
  </symbol>

  <symbol id="icon-calendar" viewBox="0 0 15 16">
    <g>
      <rect x="5" y="6" width="2" height="2"/>
      <rect x="8" y="6" width="2" height="2"/>
      <rect x="11" y="6" width="2" height="2"/>
      <rect x="2" y="9" width="2" height="2"/>
      <rect x="5" y="9" width="2" height="2"/>
      <rect x="8" y="9" width="2" height="2"/>
      <rect x="11" y="9" width="2" height="2"/>
      <rect x="2" y="12" width="2" height="2"/>
      <rect x="5" y="12" width="2" height="2"/>
      <rect x="8" y="12" width="2" height="2"/>
      <path d="M13,2V0h-3v2H5V0H2v2H0v14h15V2H13z M11,1h1v2h-1V1z M3,1h1v2H3V1z M14,15H1V5h13V15z"/>
    </g>
  </symbol>

  <symbol id="icon-help" viewBox="0 0 21.889 21.891">
    <g>
  <path fill="#0067ac" d="M10.944,0C4.902,0,0,4.902,0,10.946c0,6.043,4.902,10.944,10.944,10.944s10.944-4.901,10.944-10.944
    C21.889,4.902,16.989,0,10.944,0z"/>
  <g>
    <path fill="#FFFFFF" d="M8.633,5.56c0.635-0.409,1.413-0.612,2.336-0.612c1.216,0,2.225,0.29,3.027,0.87
      c0.803,0.579,1.203,1.438,1.203,2.578c0,0.698-0.173,1.286-0.521,1.764c-0.203,0.29-0.596,0.661-1.172,1.112l-0.572,0.443
      c-0.31,0.241-0.518,0.523-0.617,0.846c-0.066,0.203-0.1,0.521-0.105,0.951h-2.185c0.034-0.908,0.12-1.535,0.259-1.882
      s0.498-0.745,1.076-1.196l0.586-0.459c0.193-0.145,0.348-0.304,0.467-0.476c0.213-0.296,0.32-0.62,0.32-0.975
      c0-0.409-0.12-0.781-0.357-1.116c-0.238-0.336-0.674-0.504-1.306-0.504c-0.622,0-1.062,0.207-1.323,0.621
      C9.489,7.938,9.357,8.368,9.357,8.814H7.031C7.094,7.283,7.629,6.198,8.633,5.56z M9.971,14.615h2.409v2.328H9.971V14.615z"/>
  </g>
</g>
  </symbol>

  <symbol id="icon-globe" viewBox="0 0 35 35">
    <path fill="#3399CC" stroke="#3399CC" stroke-width="0.5" stroke-miterlimit="10" d="M17.742,4.016
      C10.444,4.016,4.5,9.96,4.5,17.258c0,7.297,5.944,13.242,13.242,13.242s13.243-5.944,13.243-13.242
      C30.984,9.96,25.039,4.016,17.742,4.016z M27.6,10.196h-3.854c-0.56-1.825-1.384-3.414-2.413-4.532
      C23.862,6.458,26.069,8.077,27.6,10.196z M17.153,17.847v5.297h-4.885c-0.412-1.647-0.647-3.472-0.677-5.297H17.153z
       M11.592,16.669c0.029-1.824,0.265-3.648,0.677-5.296h4.885v5.296H11.592z M18.331,17.847h5.267
      c-0.029,1.884-0.265,3.708-0.677,5.297h-4.59V17.847z M18.331,16.669v-5.296h4.59c0.412,1.648,0.647,3.472,0.677,5.296H18.331z
       M22.568,10.196h-4.238V5.223C20.272,5.546,21.686,7.518,22.568,10.196z M17.153,5.193v5.002h-4.532
      C13.534,7.371,15.064,5.34,17.153,5.193z M13.77,5.812c-0.618,0.647-1.177,1.5-1.619,2.501c-0.265,0.588-0.5,1.207-0.706,1.883
      H7.884C9.355,8.195,11.386,6.635,13.77,5.812z M7.148,11.373h4.002c-0.383,1.618-0.588,3.413-0.618,5.296H5.647
      C5.736,14.757,6.266,12.962,7.148,11.373z M5.647,17.847h4.885c0.03,1.795,0.265,3.619,0.647,5.297H7.148
      C6.266,21.555,5.736,19.76,5.647,17.847z M7.884,24.32h3.59c0.53,1.766,1.294,3.296,2.295,4.385
      C11.415,27.881,9.355,26.352,7.884,24.32z M12.622,24.32h4.532v4.973C15.064,29.146,13.534,27.116,12.622,24.32z M18.331,29.264
      V24.32h4.238c-0.147,0.5-0.354,0.941-0.53,1.383C21.361,27.204,20.066,28.94,18.331,29.264z M21.273,28.852
      c1.059-1.088,1.883-2.707,2.472-4.531H27.6C26.04,26.469,23.833,28.058,21.273,28.852z M24.039,23.144
      c0.412-1.678,0.618-3.502,0.677-5.297h5.091v-1.177h-5.091c-0.029-1.795-0.265-3.619-0.677-5.296h4.297
      c0.971,1.736,1.529,3.737,1.529,5.885c0,2.148-0.559,4.149-1.529,5.885H24.039z"/>
  </symbol>
</svg>
