<?xml version="1.0" standalone="no"?>
<!DOCTYPE svg PUBLIC "-//W3C//DTD SVG 1.1//EN" "http://www.w3.org/Graphics/SVG/1.1/DTD/svg11.dtd" >
<svg xmlns="http://www.w3.org/2000/svg">
<metadata></metadata>
<defs>
<font id="nextgearregular" horiz-adv-x="2048" >
<font-face units-per-em="2048" ascent="1638" descent="-410" />
<missing-glyph horiz-adv-x="500" />
<glyph horiz-adv-x="0" />
<glyph unicode="&#xd;" />
<glyph unicode="a" d="M250 850l118 -154h80v-462q-76 0 -130 -55t-54 -131h184h1104h184q0 76 -54 131t-130 55v462h80l118 154l-750 574zM556 156v670l444 338l444 -338v-670h-250v508h-388v-508h-250z" />
<glyph unicode="b" d="M10 708q0 178 88 331t240 241t330 88t329 -88t239 -241t88 -331t-88 -331t-239 -241t-329 -88t-330 88t-240 241t-88 331zM450 454q70 -36 170 -40v-84h94v92q74 16 124 66t50 112q0 66 -36 108t-122 70q-62 22 -86 37t-24 31q0 42 70 42q64 0 140 -32l30 124q-4 2 -14 6 t-14 6t-14 5t-18 5t-21 4t-29 3t-36 1v76h-94v-84q-72 -16 -120 -64t-48 -110q0 -66 44 -107t128 -67q52 -18 74 -33t22 -35q0 -44 -80 -44q-78 0 -162 42zM1372 426q46 148 46 272q0 98 -36 246h84v276l524 -526l-524 -526v258h-94z" />
<glyph unicode="c" d="M190 646v300q0 50 35 85t85 35h60q88 272 116 362q18 68 44 94t76 26h788q52 0 74 -22t48 -98l114 -362h60q50 0 85 -35t35 -85v-300q0 -50 -35 -85t-85 -35h-1380q-50 0 -85 35t-35 85zM310 316q0 -38 26 -65t64 -27t64 27t26 65v150h-180v-150zM314 826q0 -50 35 -85 t85 -35t85 35t35 85t-35 85t-85 35t-85 -35t-35 -85zM430 1066h1140q-100 320 -116 362q-12 34 -24 47t-36 13h-364v-60h30q12 0 21 -9t9 -21t-9 -21t-21 -9h-120q-12 0 -21 9t-9 21t9 21t21 9h30v60h-364q-26 0 -38 -11t-22 -49zM572 352h224v114h400v-114h226l-426 -304z M610 646h780v60h-780v-60zM610 766h780v60h-780v-60zM610 886h780v60h-780v-60zM1446 822q0 -50 35 -85t85 -35t85 35t35 85t-35 85t-85 35t-85 -35t-35 -85zM1510 316q0 -38 26 -65t64 -27t64 27t26 65v150h-180v-150z" />
<glyph unicode="d" d="M174 1078q0 -176 88 -325t238 -236t328 -87q198 0 364 108l474 -472q20 -18 47 -18t45 18l48 46q18 20 18 47t-18 45l-470 466q146 178 146 408q0 176 -87 326t-238 237t-329 87t-328 -87t-238 -237t-88 -326zM336 1081q0 201 144 344t347 143t347 -142t144 -344 q0 -194 -134 -336q-8 -4 -10 -8l-26 -26q-138 -118 -322 -118q-202 0 -346 143t-144 344zM504 964q0 -20 14 -33t36 -13h560q22 0 36 13t14 33v114q0 22 -15 36t-35 14h-14q-34 112 -48 152q-10 34 -20 46t-30 12h-326q-18 0 -29 -14t-19 -44l-48 -152h-26q-22 0 -36 -14 t-14 -36v-114zM556 1038q0 20 15 34t35 14t35 -14t15 -34t-15 -35t-35 -15t-35 15t-15 35zM564 828v60h60v-60q0 -36 -22 -36q-16 0 -27 11t-11 25zM604 1128l3 7t6 19t8 26t10 29t9 28t7 24t5 15q10 32 32 32h150v-24h-12q-6 0 -13 -9t-7 -15q0 -12 14 -12h48q12 0 12 12 q0 2 2 9t2 11t-4 4h-12v24h138q16 0 26 -24v-8l48 -148h-472zM684 938v40h330v-30h-316zM684 1008v30h330v-30h-316h-14zM684 1080v18h330v-30h-316zM1024 1036q0 20 15 35t35 15t35 -15t15 -35t-15 -35t-36 -15t-35 15t-14 35zM1044 828v60h90v-60q0 -14 -18 -25t-34 -11 t-27 11t-11 25z" />
<glyph unicode="e" d="M204 48v208v1112h208v-782l554 556l248 -250l228 228l-72 72l400 108l-108 -402l-72 74l-376 -378l-250 250l-552 -556v-32h1382v-208h-1382h-208z" />
<glyph unicode="f" d="M415 1197q5 -97 55 -247t150 -320q104 -178 216 -304t200 -181t169 -79q67 -20 111 -20q9 0 17 1q47 5 73 21l-248 414q-17 -10 -34 -10q-23 0 -47 19q-41 33 -117 135q-2 0 -90 147t-88 151q-22 46 -32 78q-7 23 -7 47q0 9 1 19q4 34 32 50l-254 424q-24 -18 -49 -55 t-44 -115q-15 -62 -15 -135q0 -20 1 -40zM556 1562l118 68q13 8 27 8q7 0 14 -2q21 -6 33 -24l200 -332q10 -18 5 -40t-25 -34l-118 -68zM1190 500l248 -414l120 68q20 12 25 34q1 6 1 13q0 14 -8 27l-194 322q-10 20 -32 25q-7 2 -14 2q-15 0 -28 -7z" />
<glyph unicode="g" d="M250 48v1026l498 -426zM256 1128l744 -632l746 632h-1490zM308 48h1386l-474 572l-220 -186l-218 180zM1252 648l498 -600v1026z" />
<glyph unicode="h" d="M236 98v984h50v-936h592v-48h246v48h592v936h50v-984h-592l2 -50h-348v50h-592zM334 202q16 10 43 26t111 42t168 26t164 -23t118 -47l38 -24v966q-14 12 -42 30t-111 49t-167 31q-38 0 -77 -5t-70 -14t-59 -20t-49 -21t-36 -19t-23 -14l-8 -5v-978zM1026 202 q14 10 42 26t112 42t167 26t163 -23t118 -47l40 -24v966q-16 12 -43 30t-111 49t-167 31t-164 -25t-119 -49l-38 -24v-978z" />
<glyph unicode="i" d="M280 783q0 -305 211 -520t509 -215q196 0 362 98t262 268t96 369t-96 369t-262 268t-362 98q-298 0 -509 -215t-211 -520zM830 784v50q40 62 99 105t105 43q42 -4 62 -34q14 -21 14 -48q0 -11 -2 -22l-120 -406q-2 -18 12 -22q14 -6 42 24l72 90q2 -10 0 -30t-2 -22 q-46 -72 -92 -109t-110 -37q-46 6 -66 36q-13 20 -13 44q0 12 3 24l120 404q6 18 -10 24q-14 4 -42 -26zM1014 1125q0 37 24 61t59 24t59 -24t24 -61t-24 -61t-59 -24t-59 24t-24 61z" />
<glyph unicode="j" d="M224 744q16 94 82 154q14 14 50 39t52 41q34 34 42 74q40 190 195 313t355 123q202 0 357 -123t193 -313q14 -74 96 -120q134 -74 134 -248q0 -182 -136 -254q-28 -14 -51 -41t-31 -53q-34 -114 -101 -166t-189 -54q-30 0 -45 -1t-38 -10t-43 -27q-12 -12 -33 -17t-53 -8 t-44 -5l-2 8q-80 0 -86 2q-80 12 -82 88q0 38 21 63t59 27q31 3 76.5 3t105.5 -3q24 0 48 -20q40 -34 95 -41q16 -2 32 -2q37 0 72 12q49 17 88 55t49 88q2 14 -10 48q-2 4 -21 43t-19 61q-4 85 -4 216q0 87 2 194q2 58 22 76q26 22 29 49t-7 53q-46 160 -179 259t-303 99 t-304 -98t-178 -260q-12 -24 -10 -52t28 -48q24 -18 24 -70q2 -82 2 -234v-200q0 -74 -60 -94q-21 -8 -39 -8q-42 0 -73 42q-14 18 -30 26q-80 44 -117 132q-26 61 -26 126q0 28 5 56z" />
<glyph unicode="k" d="M236 150q0 -42 31 -72t75 -30h1318q44 0 75 30t31 72v820q0 44 -31 74t-75 30h-312q-4 6 -4 76q0 54 -39 91t-93 37h-422q-54 0 -93 -38t-39 -90l4 -76h-320q-44 0 -75 -30t-31 -74v-820zM686 562q0 128 93 218t224 90t224 -90t93 -218t-93 -218t-224 -90t-224 90 t-93 218z" />
<glyph unicode="l" d="M280 768q0 -298 211 -509t509 -211t509 211t211 509t-211 509t-509 211t-509 -211t-211 -509zM908 300v182h186v-182h-186zM908 1006v236h186v-236l-32 -432h-124z" />
<glyph unicode="m" d="M83 979q27 25 51 31q30 4 62 5q16 0 35.5 0.5t42.5 -0.5q46 -1 66 -1q6 -92 38 -139t100 -65q26 -6 50 -6q101 0 160 116q28 56 68 78q34 19 83 19q9 0 19 -1q46 -3 125 -3h42h67q61 0 100 -1q30 -2 88 -50q8 -6 14 -16t13 -24t11 -20q36 -58 88 -82q35 -16 72 -16 q19 0 38 4q122 30 138 166l4 40q20 0 65 1t77 1t60 -6q26 -4 54 -29t30 -45v-4q0 -21 -19 -50q-21 -32 -43 -38q-34 -10 -48 -28t-24 -54q-62 -236 -156 -576q-22 -80 -59 -109t-119 -29h-952q-82 0 -120 29t-58 107q-122 440 -160 584q-8 32 -21 49t-45 25q-22 8 -45 38 q-21 28 -21 48q0 24 29 51zM443 935q-12 21 -12 43q0 27 17 56q22 40 214 366q100 168 110 186q32 53 77 53q26 0 55 -17q45 -25 45 -66q0 -26 -19 -58q-228 -390 -330 -560q-6 -10 -18 -19t-25 -17t-15 -10h-6q-67 0 -93 43zM538 198q0 -24 17 -40t41 -16t40 16t16 40v446 q0 22 -16 39t-40 17t-41 -17t-17 -39v-446zM816 198q0 -24 17 -40t40 -16t40 16t17 40v446q0 22 -17 39t-40 17t-40 -17t-17 -39v-446zM1066 1592q-14 -21 -14 -44q0 -24 16 -50q22 -38 324 -552q33 -57 80 -57q23 0 50 14q48 26 48 69q0 28 -20 62q-230 394 -324 550 q-8 12 -20 22t-27 19t-19 13q-66 -2 -94 -46zM1076 198q0 -24 17 -40t41 -16t40 16t16 40v446q0 22 -16 39t-40 17t-41 -17t-17 -39v-446zM1354 198q0 -24 17 -40t40 -16t40 16t17 40v446q0 22 -17 39t-40 17t-40 -17t-17 -39v-446z" />
<glyph unicode="n" d="M354 693q0 175 86 324t235 235t324 86t324 -86t235 -235t86 -324t-86 -324t-235 -235t-324 -86t-324 86t-235 235t-86 324zM470 693q0 -219 155 -374t374 -155t374 155t155 374t-155 374t-374 155t-374 -155t-155 -374zM910 458v30h10q6 2 10 4q4 4 8 12q2 8 2 22v206 q0 10 -2 20q-4 10 -6 16q-2 2 -10 8q-6 4 -12 6v28h144l4 -4v-276q0 -12 2 -22q4 -8 8 -12q4 -2 10 -6q4 -2 10 -2v-30h-178zM940 928q0 -24 17 -41t41 -17t42 16q18 18 18 42t-17 42t-42 18t-41 -18q-18 -18 -18 -42z" />
<glyph unicode="o" d="M500 48v1060h618l178 -174v-96h-18q-36 0 -70 -8v56h-176v134h-444v-884h496v-88h-584zM662 342h264v66h-264v-66zM662 478h330v66h-330v-66zM662 610h264v66h-264v-66zM662 742h330v66h-330v-66zM1056 566q0 94 65 159t157 65t157 -65t65 -159q0 -96 -70 -162v-334 l-144 88l-152 -100v340q-78 68 -78 168zM1122 567q0 -65 46 -111t110 -46t110 46t46 111t-46 111t-110 46t-110 -46t-46 -111z" />
<glyph unicode="p" d="M430 618q0 -236 167 -403t403 -167t403 167t167 403t-167 403t-403 167t-403 -167t-167 -403zM734 428q0 20 17 41t109 111l54 54q-28 26 -70 70q-76 74 -93 94t-17 40q0 30 20 46t42 16q18 0 37 -15t91 -87q46 -48 76 -78q28 26 68 70q76 76 97 92t41 16q28 0 44 -19 t16 -41q0 -20 -15 -38t-87 -90q-48 -46 -78 -76q20 -20 52 -50q92 -92 110 -113t18 -43q0 -30 -20 -45t-40 -15t-41 17t-111 107q-34 34 -54 56q-18 -20 -50 -52q-92 -92 -113 -110t-43 -18q-30 0 -45 20t-15 40z" />
<glyph unicode="q" d="M340 848q0 -208 153 -356t371 -148q156 0 290 84l380 -366q16 -14 37 -14t37 14l36 36q16 14 16 35t-16 37l-374 362q118 138 118 316q0 208 -154 356t-371 148t-370 -148t-153 -356zM470 850q0 156 115 267t277 111t277 -111t115 -267q0 -152 -110 -262l-4 -4l-16 -16 q-112 -96 -262 -96q-162 0 -277 111t-115 267z" />
<glyph unicode="r" d="M500 382q8 -14 22 -37t63 -80t103 -101t138 -80t170 -36q80 0 161 35t140 83t107 98t72 83t24 35q-8 12 -25 35t-70 80t-108 101t-138 80t-163 36q-86 0 -168 -34t-139 -82t-102 -99t-66 -83t-21 -34zM778 381q0 91 64 155t156 64t156 -64t64 -155t-64 -155t-156 -64 t-156 64t-64 155zM872 382q0 52 37 89t90 37t90 -37t37 -89t-37 -89t-90 -37t-90 37t-37 89z" />
<glyph unicode="s" d="M340 48v1350h300v-1350h-300zM700 48h120v1350h-120v-1350zM880 48h60v1350h-60v-1350zM1000 48h300v1350h-300v-1350zM1360 48h120v1350h-120v-1350zM1540 48h120v1350h-120v-1350z" />
<glyph unicode="t" d="M280 726q0 262 162 463t406 237v-780h810q-26 -258 -222 -428t-466 -170q-188 0 -346 90t-251 246t-93 342zM942 732h772q6 46 6 90q0 180 -89 333t-241 242t-332 89q-58 0 -116 -10v-744z" />
<glyph unicode="u" d="M534 48h930v76q0 10 -7 17t-17 7h-76q-2 92 -25 173t-54 136t-63 100t-54 87t-22 78t23 69t55 70t64 86t54 140t24 211h74q10 0 17 7t7 19v74h-930v-74q0 -12 7 -19t19 -7h80q0 -120 23 -211t55 -140t64 -86t54 -70t22 -69t-22 -78t-54 -87t-63 -100t-54 -136t-25 -173 h-80q-12 0 -19 -7t-7 -19v-74zM706 1298h592q-2 -120 -24 -211t-54 -140t-64 -85t-55 -70t-23 -70q0 -34 22 -76t54 -87t63 -100t54 -137t25 -174h-44q-16 54 -88 92l-64 34q-62 32 -72 44q-12 10 -28 50q-16 -40 -28 -51t-74 -43l-64 -34q-72 -38 -88 -92h-38q2 92 25 174 t54 137t63 100t54 87t22 76q0 36 -22 70t-54 70t-64 85t-55 140t-25 211zM794 1028q108 -72 212 -72t214 72q-18 -30 -82 -100l-60 -68q-42 -46 -51 -64t-15 -68q0 -16 -6 -44q-6 34 -6 44q-6 50 -14 68q-10 16 -52 64l-60 68q-64 70 -80 100z" />
<glyph unicode="v" d="M190 556v300q0 50 35 85t85 35h60q88 272 116 362q18 68 44 94t76 26h788q52 0 74 -22t48 -98l114 -362h60q50 0 85 -35t35 -85v-300q0 -50 -35 -85t-85 -35h-480l-166 120h346v60h-780v-60h346l-166 -120h-480q-50 0 -85 35t-35 85zM310 224q0 -36 26 -63t64 -27t64 27 t26 63v152h-180v-152zM314 736q0 -50 35 -85t85 -35t85 35t35 85t-35 85t-85 35t-85 -35t-35 -85zM430 976h1140q-100 320 -116 362q-12 34 -24 47t-36 13h-364v-60h30q12 0 21 -9t9 -21t-9 -21t-21 -9h-120q-12 0 -21 9t-9 21t9 21t21 9h30v60h-364q-26 0 -38 -11t-22 -49z M580 162h222v-114h396v114h222l-420 306zM610 676h780v60h-780v-60zM610 796h780v60h-780v-60zM1446 732q0 -50 35 -85t85 -35t85 35t35 85t-35 85t-85 35t-85 -35t-35 -85zM1510 224v152h180v-152q0 -36 -26 -63t-64 -27t-64 27t-26 63z" />
<glyph unicode="w" d="M334 632h192v-584h966v584h192v64l-642 584h-66l-642 -588v-60zM628 574l152 66h116v-506h-140v378h-2l-102 -46zM968 388q0 112 52 187t159 75t159 -75t52 -187q0 -114 -52 -188t-158 -74h-2q-106 0 -158 74t-52 188zM1112 388q0 154 67 154t67 -154q0 -158 -66 -158 q-68 0 -68 158z" />
<glyph unicode="x" d="M500 50h72v70h-72v-70zM500 260v70h72v-70h-72zM500 470h72v70h-72v-70zM500 680h72v70h-72v-70zM500 890h72v70h-72v-70zM500 1100h72v70h-72v-70zM714 48h786v70h-786v-70zM714 258h786v70h-786v-70zM714 468h786v70h-786v-70zM714 678h786v70h-786v-70zM714 888h786 v70h-786v-70zM714 1098h786v70h-786v-70z" />
<glyph unicode="y" d="M600 818l134 122l266 -246l266 246l134 -122l-266 -246l-134 -124l-134 124z" />
<glyph unicode="&#x2000;" horiz-adv-x="1024" />
<glyph unicode="&#x2001;" />
<glyph unicode="&#x2002;" horiz-adv-x="1024" />
<glyph unicode="&#x2003;" />
<glyph unicode="&#x2004;" horiz-adv-x="682" />
<glyph unicode="&#x2005;" horiz-adv-x="512" />
<glyph unicode="&#x2006;" horiz-adv-x="341" />
<glyph unicode="&#x2007;" horiz-adv-x="341" />
<glyph unicode="&#x2008;" horiz-adv-x="256" />
<glyph unicode="&#x2009;" horiz-adv-x="409" />
<glyph unicode="&#x200a;" horiz-adv-x="113" />
<glyph unicode="&#x202f;" horiz-adv-x="409" />
<glyph unicode="&#x205f;" horiz-adv-x="512" />
<glyph unicode="&#xe000;" horiz-adv-x="1170" d="M0 0v1170h1170v-1170h-1170z" />
</font>
</defs>
</svg>
